<svg width="69" height="27" viewBox="0 0 69 27" fill="none" xmlns="http://www.w3.org/2000/svg">
<path fill-rule="evenodd" clip-rule="evenodd" d="M-1.15173e-06 26.3486L8.97243 26.3486L18.6166 13.1743L8.97244 -4.21558e-07L0 -8.13756e-07L9.64412 13.1743L-1.15173e-06 26.3486Z" fill="#4B0000"/>
<path fill-rule="evenodd" clip-rule="evenodd" d="M16.6166 26.3486L25.589 26.3486L35.2331 13.1743L25.589 -4.21558e-07L16.6166 -8.13756e-07L26.2607 13.1743L16.6166 26.3486Z" fill="#870000"/>
<path fill-rule="evenodd" clip-rule="evenodd" d="M33.2331 26.3486L42.2056 26.3486L51.8497 13.1743L42.2056 -4.21558e-07L33.2331 -8.13756e-07L42.8772 13.1743L33.2331 26.3486Z" fill="#C30000"/>
<path fill-rule="evenodd" clip-rule="evenodd" d="M49.8497 26.3486L58.8221 26.3486L68.4663 13.1743L58.8221 -4.21558e-07L49.8497 -8.13756e-07L59.4938 13.1743L49.8497 26.3486Z" fill="#FF2E2E"/>
</svg>
