<svg width="245" height="131" viewBox="0 0 245 131" fill="none" xmlns="http://www.w3.org/2000/svg">
<path d="M117.965 32.6186L119.985 32.2836C129.56 31.7236 139.155 30.9136 148.725 30.4136C152.455 30.2186 156.24 30.2736 159.955 29.9136C159.19 28.7186 157.34 27.8086 155.995 27.7186C155.34 27.6736 154.84 27.8886 154.23 27.8936C130.95 28.1186 107.665 27.8536 84.44 27.0486C79.665 26.8836 74.85 26.4836 70.08 26.3586C68.06 26.3036 66.035 26.4136 64.015 26.3636C64.08 26.0436 64.335 26.0586 64.575 26.0236C68.355 25.4836 72.19 25.2486 75.965 24.6736L74.115 24.3286C62.62 24.2686 51.04 24.0536 39.79 26.7036L42.535 27.3736C35.5 29.5386 28.99 33.0886 22.505 36.5886C21.385 36.9636 19.96 38.4736 19.035 38.8736C18.96 38.9036 18.77 38.9186 18.795 38.7936C22.025 35.9136 25.765 33.7636 29.35 31.4136C29.515 31.3086 29.845 31.0636 29.375 31.1036C28.1 31.7236 26.76 32.1836 25.465 32.7636C20.92 34.7886 15.88 36.9736 11.49 39.2686C9.36001 40.3836 6.93501 41.6236 5.46501 43.6136C5.42501 43.0136 6.02501 42.1036 6.43501 41.5836C8.41001 39.0486 15.655 35.2736 18.685 33.6086C24.915 30.1786 31.465 26.9736 38.215 24.7986C52.55 20.1836 67.765 20.3586 82.64 20.0736C94.43 11.2336 107.735 4.18863 122.135 1.39363C132.59 -0.63637 143.12 0.0136306 153.66 0.493631L153.34 1.33863L153.745 1.49363C153.85 1.49363 154.315 0.273629 155.365 0.318629C155.72 0.333629 155.93 0.61863 156.32 0.67863C157.95 0.91863 160.155 0.61863 161.78 0.88363C161.925 0.90863 162.265 0.95863 162.22 1.17863C159.835 0.92863 157.33 1.75363 155.03 1.85363C154.005 1.89863 152.895 0.98363 152.53 2.35863C154.16 2.99363 155.925 2.36863 157.535 3.03863L157.215 3.87863C158.27 4.38863 158.215 3.66863 158.875 3.23363C169.885 5.30363 180.125 10.0086 190.685 13.5686C197.91 16.0036 205.365 17.6486 212.94 18.4236C212.98 18.7186 212.575 18.5836 212.375 18.5886C209.58 18.6986 206.765 18.8586 203.975 19.0986C198.53 19.5636 192.575 20.0086 187.2 20.8136C182.92 21.4536 178.3 22.5086 174.575 24.8436C174.115 24.8886 174.44 24.6386 174.58 24.5136C177.175 22.1386 181.1 20.5336 184.345 19.4336C184.375 19.1336 183.8 19.2536 183.62 19.2686C178.395 19.6936 173.385 22.1936 169.485 25.7736C163.285 31.4686 166.25 37.2136 157.675 39.3486C156.96 39.5286 155.375 39.5536 155.46 39.4086C160.81 35.8036 159.87 34.5886 159.96 32.6236H117.965V32.6186ZM180.795 12.8286C179.845 12.0686 178.435 11.6286 177.28 11.1836C165.67 6.65863 153.24 3.89363 140.825 3.52363C139.67 3.48863 138.5 3.56363 137.345 3.53363L139.12 4.03863C129.78 4.03363 120.31 5.88363 111.58 9.27863C105.49 11.6486 99.895 14.7936 94.62 18.7486L94.38 18.6686L98.095 14.7786C98.12 14.6536 97.94 14.6686 97.855 14.6986C96.945 15.0086 94.045 17.0936 93.035 17.7736C91.345 18.9086 89.68 20.1036 88.08 21.3786C90.395 22.8286 93.19 23.5486 95.865 23.7986C103.47 20.0436 110.19 15.3936 118.57 13.5686C121.815 12.8636 126.7 11.6086 129.845 11.3386C130.51 11.2836 132.435 11.1636 132.825 11.7736L132.86 12.4486L127 17.2336C136.22 14.4636 145.71 12.5836 155.26 11.4886L141.725 14.6436C137.37 15.6086 133.09 17.2936 128.775 18.3336C127.42 18.6586 122.705 19.9736 124.825 16.9036C125.715 15.6186 128.035 14.6036 129.305 13.6486C129.56 13.4586 130.12 13.2086 130.06 12.8336C120.365 14.1586 109.635 16.6786 102.44 23.9936C120.5 23.8736 138.55 23.6586 156.625 23.4836C167.335 20.1886 177.18 15.5986 188.775 16.8836L198.055 17.5636L188.04 15.6236C186.235 15.2886 184.09 14.1836 182.305 14.0136C181.935 13.9786 181.905 14.0436 182.265 14.2236C182.705 14.4436 183.315 14.5136 183.52 15.0236C179.255 15.4386 174.905 14.6886 170.76 16.0386L173.025 14.7736L176.575 13.5886C173.8 11.4536 170.42 10.6986 167.27 9.46363C167.065 9.38363 166.775 9.42363 166.725 9.10863L180.775 12.8236L180.795 12.8286Z" fill="white"/>
<path d="M72.715 31.7734C72.745 32.0184 72.29 32.0784 72.13 32.0934C70.625 32.2684 69.085 32.2084 67.65 32.7884L67.73 33.2934C67.26 33.1734 61.935 31.6184 61.935 32.1934C66.28 33.7834 70.215 36.6834 72.715 40.7334C72.41 40.8084 72.325 40.5584 72.145 40.3984C61.305 30.9784 47.455 29.9034 37.285 40.9934L35.485 43.6084C36.3 38.2334 41.22 34.0184 45.895 32.1534C51.355 29.9784 55.86 30.4734 61.53 30.9284C65.255 31.2284 68.955 31.9484 72.72 31.7734H72.715Z" fill="white"/>
<path d="M207.62 40.5638C203.015 36.4738 197.615 33.6638 191.4 32.9588C184.005 32.1188 175.615 34.7288 170.685 40.3938C169.81 41.3988 169.185 42.5538 168.395 43.6088C169.505 38.4988 173.68 34.3988 178.35 32.3038C187.71 28.1038 199.39 30.5288 206.085 38.2888C206.3 38.5388 207.77 40.3988 207.615 40.5688L207.62 40.5638Z" fill="white"/>
<path d="M239.15 23.3188L237.54 23.6538C233.865 23.8888 230.225 24.2288 226.6 24.8938C222.085 25.7188 213.055 28.9238 209.04 27.4588C208.03 27.0888 207.115 26.3388 206.03 26.0688C204.945 25.7988 204.075 25.9588 202.95 26.0238C202.865 25.5438 203.065 25.7438 203.32 25.6438C204.75 25.0738 206.335 24.9038 207.82 25.2988C208.685 25.5288 209.57 26.1888 210.345 26.3238C213.13 26.7988 219.745 24.6288 222.9 24.0788C228.3 23.1338 233.67 23.0638 239.14 23.3238L239.15 23.3188Z" fill="white"/>
<path d="M13.535 57.0635V90.7285H0V44.5835H18.73C20.71 44.5835 22.65 44.9485 24.54 45.6785C26.455 46.4285 28.175 47.4935 29.7 48.8735C31.225 50.2535 32.425 51.8435 33.29 53.6435C34.18 55.4685 34.625 57.4135 34.625 59.4885C34.625 61.8135 34.09 64.0585 33.02 66.2235C31.95 68.3885 30.47 70.2585 28.575 71.8285L36.435 90.7285H22.08L15.345 75.8285V63.8985C17.055 63.8985 18.405 63.6585 19.395 63.1785C20.385 62.6985 20.88 61.7335 20.88 60.2735C20.88 59.1335 20.5 58.3135 19.735 57.8135C18.97 57.3135 18.02 57.0635 16.88 57.0635H13.53H13.535Z" fill="white"/>
<path d="M56.84 79.7934H53.08V90.7334H39.44V60.8934C39.44 57.4284 40.125 54.3784 41.49 51.7334C42.88 49.1134 44.86 47.0784 47.435 45.6334C50.01 44.1884 53.02 43.4634 56.46 43.4634C58.83 43.4634 61.01 43.9234 63.005 44.8484C65 45.7734 66.695 47.0384 68.1 48.6434C69.505 50.2484 70.585 52.1134 71.345 54.2334C72.11 56.3534 72.49 58.5734 72.49 60.8984V90.7384H58.82V60.8984C58.82 59.7834 58.54 58.9234 57.985 58.3184C57.425 57.7134 56.75 57.4134 55.95 57.4134C55.15 57.4134 54.475 57.7234 53.915 58.3384C53.355 58.9534 53.08 59.8084 53.08 60.9034V67.5684H56.84V79.8034V79.7934Z" fill="white"/>
<path d="M100.555 65.1634V90.7284H86.68V65.1634L73.865 44.5884H87.535L93.55 54.1934L100.42 44.5884H113.92L100.555 65.1634Z" fill="white"/>
<path d="M128.24 44.5887V74.9737C128.24 75.7737 128.44 76.4137 128.84 76.9037C129.24 77.3937 129.7 77.6387 130.225 77.6387C130.795 77.6387 131.29 77.3987 131.71 76.9187C132.13 76.4387 132.34 75.7887 132.34 74.9687V44.5837H145.67V74.8337C145.67 75.6337 145.89 76.2887 146.335 76.7987C146.78 77.3087 147.265 77.5687 147.79 77.5687C148.315 77.5687 148.775 77.3387 149.175 76.8837C149.575 76.4287 149.775 75.7887 149.775 74.9687V44.5837H163.14V77.1887C163.14 79.8337 162.62 82.2637 161.585 84.4837C160.55 86.7037 159.025 88.4887 157.02 89.8337C155.015 91.1787 152.665 91.8487 149.98 91.8487C147.77 91.8487 145.64 91.2637 143.59 90.0887C141.54 88.9137 139.955 87.3737 138.84 85.4587C136.24 89.7187 132.485 91.8487 127.56 91.8487C125.42 91.8487 123.365 91.2687 121.41 90.1037C119.475 88.9437 117.9 87.3937 116.695 85.4537C115.51 83.4937 114.92 81.4187 114.92 79.2337V44.5737H128.25L128.24 44.5887Z" fill="white"/>
<path d="M188.09 79.7934H184.33V90.7334H170.69V60.8934C170.69 57.4284 171.375 54.3784 172.74 51.7334C174.13 49.1134 176.11 47.0784 178.685 45.6334C181.26 44.1884 184.27 43.4634 187.71 43.4634C190.08 43.4634 192.26 43.9234 194.255 44.8484C196.25 45.7734 197.945 47.0384 199.35 48.6434C200.755 50.2484 201.835 52.1134 202.595 54.2334C203.36 56.3534 203.74 58.5734 203.74 60.8984V90.7384H190.07V60.8984C190.07 59.7834 189.79 58.9234 189.235 58.3184C188.675 57.7134 188 57.4134 187.2 57.4134C186.4 57.4134 185.725 57.7234 185.165 58.3384C184.605 58.9534 184.33 59.8084 184.33 60.9034V67.5684H188.09V79.8034V79.7934Z" fill="white"/>
<path d="M211.705 60.3435C211.705 57.3585 212.41 54.5685 213.825 51.9685C215.24 49.3685 217.185 47.3085 219.67 45.7835C222.13 44.2335 224.865 43.4585 227.875 43.4585C230.885 43.4585 233.74 44.1935 236.315 45.6635C238.89 47.1335 240.92 49.1535 242.4 51.7285C243.88 54.3035 244.62 57.1735 244.62 60.3435V90.7285H230.95V60.7535C230.95 59.7735 230.675 59.0335 230.13 58.5335C229.56 58.0085 228.875 57.7485 228.08 57.7485C227.285 57.7485 226.555 58.0235 225.96 58.5685C225.345 59.0935 225.035 59.8235 225.035 60.7585V90.7335H211.705V60.3485V60.3435Z" fill="white"/>
<path d="M72.205 111.998C72.205 112.183 72.18 112.368 72.13 112.548C72.08 112.728 71.985 112.928 71.845 113.148C71.705 113.368 71.52 113.628 71.29 113.928C71.06 114.228 70.755 114.593 70.385 115.023V115.008C70.005 115.453 69.6 115.893 69.175 116.328C68.75 116.768 68.285 117.218 67.795 117.678C67.32 118.133 66.85 118.548 66.375 118.928C65.9 119.308 65.445 119.638 65 119.918C64.555 120.198 64.14 120.413 63.75 120.573C63.36 120.733 63.01 120.813 62.7 120.813C61.99 120.813 61.425 120.648 61 120.318C60.58 119.988 60.24 119.543 59.99 118.973C59.74 118.408 59.545 117.743 59.41 116.973C59.275 116.203 59.155 115.388 59.04 114.528C58.76 114.948 58.465 115.403 58.15 115.878C57.835 116.353 57.505 116.833 57.16 117.308C56.815 117.783 56.455 118.238 56.08 118.683C55.705 119.128 55.32 119.528 54.93 119.888C53.9 120.823 52.845 121.528 51.755 121.993C50.665 122.458 49.55 122.693 48.395 122.693C47.995 122.693 47.645 122.588 47.345 122.383C47.045 122.178 46.8 121.913 46.605 121.588C46.41 121.263 46.265 120.908 46.165 120.523C46.065 120.138 46.02 119.763 46.02 119.403C46.02 118.918 46.04 118.503 46.08 118.158C46.12 117.813 46.185 117.523 46.265 117.288C46.705 116.023 47.2 114.818 47.74 113.683C48.28 112.548 48.945 111.428 49.74 110.323C50.235 109.623 50.725 109.008 51.205 108.468C51.685 107.928 52.2 107.483 52.74 107.118C53.28 106.753 53.865 106.478 54.49 106.293C55.115 106.108 55.825 106.013 56.605 106.013C57.265 106.013 57.805 106.253 58.225 106.738C58.645 107.223 58.945 107.898 59.12 108.758C59.19 108.368 59.26 107.923 59.33 107.428C59.395 106.933 59.46 106.413 59.525 105.868C59.585 105.323 59.645 104.758 59.695 104.168C59.745 103.583 59.795 102.998 59.835 102.423C59.885 101.618 59.955 100.943 60.035 100.383C60.115 99.8284 60.22 99.4484 60.345 99.2434C60.51 98.9734 60.715 98.7534 60.965 98.5784C61.21 98.4034 61.545 98.3184 61.97 98.3184C62.225 98.3184 62.47 98.3583 62.705 98.4333C62.94 98.5083 63.14 98.6084 63.325 98.7284C63.505 98.8484 63.645 98.9784 63.75 99.1284C63.855 99.2784 63.905 99.4234 63.905 99.5684C63.905 99.7034 63.88 99.9034 63.83 100.168C63.78 100.438 63.71 100.788 63.62 101.228C63.53 101.668 63.425 102.203 63.305 102.833C63.185 103.463 63.045 104.213 62.89 105.078C62.89 105.138 62.875 105.253 62.85 105.418C62.825 105.583 62.795 105.773 62.76 105.983C62.725 106.193 62.69 106.413 62.65 106.638C62.61 106.863 62.58 107.078 62.54 107.278C62.5 107.478 62.475 107.653 62.445 107.793C62.42 107.938 62.4 108.023 62.39 108.058C62.265 108.863 62.165 109.608 62.08 110.298C61.995 110.988 61.955 111.678 61.955 112.368C61.955 112.678 61.955 113.008 61.965 113.358C61.965 113.708 61.98 114.058 61.99 114.418C62 114.773 62.015 115.128 62.035 115.473C62.055 115.823 62.085 116.158 62.13 116.478C62.14 116.548 62.165 116.633 62.205 116.733C62.245 116.833 62.3 116.923 62.365 117.013C62.43 117.103 62.51 117.173 62.605 117.238C62.7 117.298 62.8 117.333 62.915 117.333C63.06 117.333 63.215 117.303 63.38 117.248C63.545 117.193 63.715 117.118 63.895 117.033C64.075 116.948 64.25 116.853 64.42 116.753C64.59 116.653 64.74 116.558 64.875 116.468C65.42 116.108 65.96 115.718 66.49 115.303C67.02 114.888 67.555 114.428 68.09 113.938C68.615 113.453 69.14 112.983 69.665 112.523C70.19 112.063 70.655 111.618 71.055 111.188C71.21 111.033 71.405 110.958 71.64 110.958C71.805 110.958 71.94 111.033 72.05 111.188C72.16 111.343 72.21 111.608 72.21 111.993L72.205 111.998ZM56.24 114.468C56.32 114.373 56.41 114.263 56.51 114.128C56.61 113.993 56.705 113.848 56.805 113.698C56.905 113.543 57 113.388 57.1 113.228C57.2 113.068 57.28 112.923 57.34 112.788C57.125 112.643 56.965 112.453 56.87 112.208C56.775 111.963 56.725 111.723 56.725 111.473C56.725 111.368 56.735 111.253 56.75 111.118C56.765 110.983 56.785 110.848 56.805 110.708C56.825 110.568 56.845 110.438 56.86 110.313C56.875 110.188 56.885 110.098 56.885 110.033C56.885 109.898 56.845 109.758 56.76 109.608C56.675 109.458 56.575 109.323 56.46 109.198C56.345 109.073 56.215 108.973 56.075 108.888C55.935 108.808 55.81 108.763 55.695 108.763C55.45 108.763 55.16 108.908 54.83 109.203C54.5 109.498 54.155 109.863 53.795 110.308C53.435 110.753 53.075 111.233 52.72 111.758C52.365 112.283 52.04 112.773 51.74 113.223C51.41 113.738 51.13 114.218 50.89 114.668C50.655 115.113 50.445 115.518 50.27 115.878C49.725 117.053 49.45 117.978 49.45 118.658C49.45 119.278 49.565 119.583 49.79 119.583C49.995 119.583 50.265 119.513 50.595 119.368C50.925 119.223 51.31 119.003 51.755 118.703C52.22 118.383 52.635 118.078 53.015 117.783C53.39 117.488 53.71 117.203 53.98 116.928C54.555 116.343 55.025 115.843 55.385 115.438C55.745 115.033 56.035 114.703 56.25 114.458L56.24 114.468Z" fill="#C60500"/>
<path d="M89.25 111.998C89.25 112.183 89.11 112.523 88.835 113.018C88.3 113.788 87.705 114.553 87.05 115.308C86.395 116.063 85.7 116.784 84.96 117.464C84.22 118.144 83.445 118.774 82.645 119.354C81.84 119.934 81.03 120.438 80.205 120.858C79.38 121.278 78.56 121.614 77.745 121.854C76.925 122.094 76.125 122.218 75.345 122.218C73.585 122.218 72.215 121.724 71.23 120.729C70.245 119.734 69.755 118.234 69.755 116.229C69.755 115.424 69.81 114.638 69.925 113.858C70.04 113.078 70.225 112.313 70.49 111.558C70.755 110.803 71.095 110.058 71.515 109.328C71.935 108.598 72.455 107.888 73.075 107.198C73.3 106.943 73.565 106.693 73.87 106.458C74.175 106.223 74.495 106.008 74.84 105.823C75.185 105.638 75.545 105.488 75.92 105.378C76.295 105.263 76.67 105.208 77.04 105.208C77.585 105.208 78.055 105.313 78.455 105.518C78.85 105.723 79.18 105.998 79.435 106.343C79.69 106.688 79.885 107.083 80.005 107.533C80.125 107.983 80.19 108.453 80.19 108.948C80.19 109.863 79.85 110.813 79.17 111.798C78.49 112.783 77.55 113.788 76.345 114.818C75.955 115.148 75.5 115.503 74.985 115.893C74.47 116.278 73.895 116.713 73.255 117.198C73.275 117.453 73.35 117.698 73.48 117.923C73.61 118.148 73.785 118.348 74.005 118.518C74.225 118.688 74.49 118.823 74.8 118.918C75.11 119.018 75.46 119.063 75.85 119.063C76.355 119.063 76.89 118.998 77.455 118.868C78.02 118.738 78.58 118.569 79.14 118.354C79.7 118.139 80.235 117.889 80.76 117.604C81.285 117.319 81.765 117.024 82.195 116.714C82.955 116.169 83.69 115.578 84.395 114.943C85.1 114.308 85.78 113.663 86.44 113.003L87.26 112.183C87.825 111.678 88.31 111.428 88.71 111.428C88.915 111.428 89.055 111.498 89.135 111.638C89.21 111.778 89.25 111.898 89.25 112.003V111.998ZM77.205 109.158C77.205 108.933 77.18 108.718 77.135 108.508C77.09 108.303 77.015 108.173 76.91 108.123C76.56 108.123 76.185 108.273 75.79 108.573C75.395 108.873 75.015 109.298 74.655 109.848C74.295 110.398 73.975 111.064 73.69 111.839C73.405 112.614 73.2 113.478 73.065 114.423C73.55 114.063 74.035 113.683 74.525 113.288C75.015 112.893 75.455 112.478 75.855 112.043C76.25 111.608 76.575 111.153 76.83 110.678C77.08 110.198 77.21 109.693 77.21 109.158H77.205Z" fill="#C60500"/>
<path d="M102.91 109.188C102.91 109.383 102.87 109.563 102.785 109.723C102.7 109.883 102.6 110.028 102.475 110.153C102.35 110.283 102.215 110.398 102.065 110.503C101.915 110.608 101.775 110.698 101.64 110.783C101.175 110.988 100.68 111.168 100.15 111.323C99.62 111.478 99.09 111.608 98.565 111.718C98.04 111.828 97.53 111.918 97.03 111.988C96.53 112.058 96.07 112.123 95.65 112.173C95.36 112.203 95.06 112.238 94.745 112.273C94.43 112.308 94.125 112.343 93.825 112.373C93.525 112.403 93.25 112.433 92.99 112.463C92.735 112.493 92.51 112.523 92.325 112.558C92.1 113.433 91.885 114.273 91.685 115.073C91.485 115.873 91.31 116.633 91.17 117.343C91.15 117.468 91.12 117.638 91.075 117.853C91.03 118.068 90.99 118.308 90.945 118.563C90.9 118.818 90.855 119.088 90.815 119.373C90.775 119.658 90.735 119.923 90.7 120.178C90.665 120.428 90.635 120.658 90.615 120.858C90.595 121.058 90.585 121.213 90.585 121.313C90.585 121.673 90.64 121.928 90.755 122.078C90.87 122.228 90.98 122.348 91.095 122.443C91.3 122.608 91.475 122.768 91.61 122.923C91.745 123.078 91.82 123.288 91.82 123.558C91.82 123.763 91.75 123.958 91.605 124.138C91.46 124.318 91.28 124.473 91.065 124.608C90.85 124.743 90.615 124.848 90.37 124.933C90.125 125.018 89.89 125.058 89.675 125.058C89.305 125.058 88.97 124.968 88.67 124.788C88.37 124.608 88.115 124.368 87.9 124.068C87.685 123.768 87.52 123.428 87.405 123.048C87.29 122.668 87.235 122.278 87.235 121.873C87.235 121.193 87.285 120.448 87.39 119.633C87.495 118.818 87.64 118.003 87.84 117.178C87.925 116.818 88.01 116.423 88.11 115.988C88.21 115.558 88.3 115.143 88.38 114.753C88.46 114.363 88.535 114.013 88.595 113.713C88.655 113.408 88.7 113.208 88.72 113.103C88.505 113.113 88.19 113.143 87.785 113.193C87.38 113.243 86.895 113.268 86.34 113.268C85.875 113.268 85.485 113.238 85.165 113.183C84.845 113.128 84.585 113.023 84.38 112.868C84.175 112.713 84.025 112.503 83.93 112.233C83.835 111.963 83.79 111.613 83.79 111.183C83.79 110.938 83.88 110.738 84.055 110.588C84.23 110.438 84.445 110.323 84.705 110.248C84.965 110.173 85.23 110.118 85.51 110.093C85.79 110.068 86.035 110.053 86.25 110.053C86.355 110.053 86.535 110.038 86.79 110.013C87.045 109.988 87.33 109.963 87.63 109.938C87.935 109.913 88.225 109.888 88.51 109.863C88.795 109.838 89.01 109.823 89.165 109.823C89.215 109.823 89.28 109.723 89.36 109.528C89.435 109.333 89.515 109.078 89.6 108.773C89.68 108.463 89.765 108.123 89.855 107.748C89.94 107.373 90.025 107.003 90.11 106.638C90.195 106.273 90.265 105.938 90.335 105.628C90.4 105.318 90.455 105.078 90.495 104.903C90.61 104.473 90.705 103.988 90.78 103.453C90.855 102.918 90.975 102.413 91.125 101.933C91.275 101.453 91.5 101.053 91.78 100.728C92.065 100.403 92.465 100.243 92.99 100.243C93.545 100.243 93.955 100.363 94.225 100.608C94.495 100.853 94.625 101.248 94.625 101.803C94.625 102.058 94.6 102.363 94.555 102.713C94.51 103.063 94.43 103.413 94.315 103.763C94.07 104.553 93.855 105.298 93.68 105.988C93.505 106.678 93.365 107.278 93.255 107.788C93.145 108.298 93.045 108.843 92.955 109.418C93.375 109.418 93.78 109.418 94.165 109.408C94.55 109.408 94.945 109.393 95.345 109.378C95.745 109.363 96.165 109.338 96.605 109.308C97.045 109.278 97.52 109.228 98.035 109.168C98.63 109.098 99.135 109.023 99.55 108.953C99.96 108.883 100.325 108.813 100.64 108.753C100.955 108.693 101.24 108.638 101.495 108.598C101.75 108.558 102.02 108.538 102.3 108.538C102.445 108.538 102.58 108.578 102.71 108.653C102.84 108.728 102.905 108.913 102.905 109.203L102.91 109.188Z" fill="#C60500"/>
<path d="M121.575 112.308C121.575 112.433 121.55 112.578 121.505 112.748C121.46 112.918 121.4 113.088 121.325 113.258C121.255 113.428 121.175 113.593 121.085 113.753C121 113.913 120.915 114.048 120.83 114.163C120.78 114.233 120.695 114.338 120.585 114.463C120.47 114.593 120.345 114.738 120.2 114.893C120.055 115.053 119.895 115.223 119.715 115.408C119.535 115.593 119.35 115.778 119.165 115.963C118.57 116.518 117.965 117.068 117.35 117.608C116.735 118.148 116.095 118.628 115.43 119.043C114.76 119.458 114.06 119.798 113.33 120.053C112.6 120.308 111.82 120.438 111 120.438C110.65 120.438 110.295 120.363 109.935 120.208C109.575 120.053 109.24 119.843 108.93 119.573C108.62 119.303 108.35 118.983 108.12 118.608C107.89 118.233 107.725 117.828 107.635 117.398C107.45 117.708 107.21 118.038 106.91 118.393C106.61 118.748 106.285 119.103 105.93 119.448C105.575 119.798 105.205 120.128 104.825 120.443C104.445 120.758 104.09 121.028 103.76 121.253C103.535 121.408 103.26 121.568 102.935 121.733C102.61 121.898 102.27 122.048 101.91 122.188C101.55 122.328 101.185 122.438 100.82 122.528C100.455 122.618 100.12 122.658 99.81 122.658C99.315 122.658 98.885 122.518 98.515 122.233C98.145 121.948 97.84 121.603 97.595 121.193C97.355 120.783 97.175 120.343 97.055 119.883C96.935 119.418 96.88 119.003 96.88 118.633C96.88 117.953 96.98 117.263 97.18 116.558C97.38 115.853 97.64 115.168 97.95 114.498C98.26 113.828 98.615 113.193 99 112.583C99.385 111.978 99.765 111.438 100.135 110.963C100.525 110.468 100.995 109.978 101.54 109.488C102.085 108.998 102.655 108.563 103.255 108.178C103.85 107.793 104.44 107.483 105.025 107.243C105.605 107.008 106.125 106.888 106.575 106.888C106.82 106.888 107.075 106.898 107.34 106.913C107.605 106.928 107.86 106.953 108.12 106.983C108.375 107.013 108.625 107.058 108.86 107.123C109.095 107.183 109.305 107.263 109.495 107.353C109.62 107.438 109.755 107.583 109.905 107.793C110.055 108.003 110.195 108.233 110.32 108.473C110.45 108.713 110.56 108.953 110.65 109.193C110.745 109.428 110.79 109.613 110.79 109.748C110.79 110.038 110.745 110.378 110.66 110.773C110.575 111.168 110.475 111.583 110.365 112.018C110.255 112.453 110.155 112.893 110.065 113.348C109.97 113.803 109.925 114.233 109.925 114.643C109.925 114.933 109.965 115.223 110.05 115.523C110.135 115.823 110.25 116.093 110.405 116.333C110.56 116.573 110.745 116.773 110.96 116.928C111.175 117.083 111.42 117.158 111.685 117.158C112.29 117.158 112.895 117.043 113.49 116.818C114.085 116.593 114.685 116.278 115.28 115.883C115.875 115.488 116.475 115.018 117.07 114.478C117.665 113.938 118.27 113.353 118.875 112.728C118.895 112.728 118.98 112.653 119.12 112.498C119.265 112.343 119.435 112.173 119.635 111.988C119.835 111.803 120.045 111.633 120.27 111.478C120.495 111.323 120.685 111.248 120.85 111.248C121.15 111.248 121.345 111.338 121.435 111.513C121.53 111.688 121.575 111.958 121.575 112.318V112.308ZM107.545 110.718C107.545 110.628 107.525 110.518 107.49 110.393C107.455 110.268 107.405 110.153 107.35 110.048C107.295 109.938 107.23 109.848 107.155 109.768C107.085 109.693 107.015 109.653 106.955 109.653C106.275 109.653 105.655 109.838 105.095 110.203C104.535 110.568 103.95 111.063 103.345 111.693C103.005 112.033 102.64 112.493 102.255 113.068C101.87 113.643 101.51 114.258 101.18 114.903C100.85 115.548 100.58 116.198 100.36 116.848C100.145 117.498 100.035 118.068 100.035 118.563C100.035 118.688 100.045 118.808 100.06 118.928C100.075 119.048 100.105 119.153 100.155 119.243C100.2 119.333 100.265 119.413 100.35 119.473C100.43 119.533 100.54 119.568 100.675 119.568C101.065 119.568 101.51 119.443 102.005 119.188C102.5 118.938 102.995 118.608 103.495 118.198C103.995 117.793 104.48 117.323 104.945 116.793C105.415 116.263 105.805 115.718 106.125 115.163C106.515 114.483 106.85 113.773 107.13 113.033C107.41 112.293 107.545 111.518 107.545 110.718Z" fill="#C60500"/>
<path d="M136.09 112.783C136.09 113.018 136 113.323 135.82 113.688C135.64 114.053 135.395 114.458 135.08 114.908C134.765 115.358 134.395 115.833 133.96 116.343C133.53 116.853 133.06 117.373 132.555 117.908C132.01 118.493 131.42 119.073 130.78 119.638C130.14 120.203 129.465 120.748 128.74 121.273C128.03 121.788 127.33 122.188 126.64 122.468C125.95 122.753 125.295 122.893 124.68 122.893C123.96 122.893 123.335 122.773 122.805 122.528C122.275 122.283 121.82 121.958 121.445 121.538C121.07 121.123 120.765 120.643 120.525 120.103C120.29 119.563 120.1 118.993 119.96 118.388C119.82 117.783 119.725 117.178 119.675 116.558C119.625 115.938 119.595 115.353 119.595 114.798C119.595 114.583 119.61 114.258 119.64 113.823C119.67 113.393 119.715 112.933 119.77 112.458C119.825 111.983 119.89 111.518 119.955 111.068C120.02 110.623 120.09 110.268 120.165 110.013C120.32 109.508 120.675 109.028 121.23 108.578C121.765 108.148 122.36 107.928 123.02 107.928C123.68 107.928 124.025 108.328 124.025 109.133C124.025 109.513 123.99 109.918 123.925 110.343C123.86 110.768 123.785 111.188 123.7 111.603C123.565 112.353 123.475 113.033 123.42 113.633C123.37 114.233 123.345 114.768 123.345 115.233C123.345 115.758 123.375 116.268 123.435 116.763C123.495 117.258 123.585 117.698 123.705 118.083C123.825 118.468 123.975 118.778 124.155 119.018C124.335 119.253 124.55 119.373 124.795 119.373C125.105 119.373 125.42 119.343 125.75 119.288C126.08 119.233 126.475 119.078 126.94 118.833C127.825 118.348 128.765 117.698 129.765 116.873C130.115 116.583 130.515 116.243 130.96 115.848C131.41 115.453 131.855 115.043 132.295 114.628C132.735 114.213 133.155 113.803 133.545 113.398C133.935 112.993 134.245 112.653 134.47 112.363C134.5 112.313 134.545 112.248 134.6 112.168C134.655 112.088 134.72 112.013 134.795 111.928C134.865 111.848 134.945 111.778 135.035 111.718C135.12 111.663 135.205 111.633 135.29 111.633C135.455 111.633 135.575 111.658 135.655 111.703C135.735 111.748 135.815 111.893 135.91 112.128C136.025 112.383 136.08 112.603 136.08 112.778L136.09 112.783ZM126.485 100.078C126.485 100.418 126.435 100.738 126.33 101.043C126.225 101.348 126.08 101.633 125.88 101.898C125.49 102.443 124.885 102.718 124.075 102.718C123.785 102.718 123.495 102.693 123.195 102.643C122.895 102.593 122.63 102.518 122.39 102.428C122.155 102.338 121.96 102.218 121.805 102.073C121.65 101.928 121.575 101.763 121.575 101.578C121.575 101.258 121.655 100.923 121.82 100.568C121.985 100.213 122.2 99.8834 122.46 99.5784C122.72 99.2734 123.01 99.0234 123.325 98.8234C123.64 98.6234 123.94 98.5234 124.23 98.5234C124.59 98.5234 124.91 98.5484 125.185 98.5934C125.46 98.6384 125.695 98.7184 125.89 98.8334C126.08 98.9484 126.225 99.1084 126.33 99.3134C126.435 99.5184 126.485 99.7784 126.485 100.083V100.078Z" fill="#C60500"/>
<path d="M149.6 113.249C149.6 113.484 149.54 113.784 149.42 114.139C149.3 114.494 149.105 114.904 148.825 115.374C148.545 115.844 148.175 116.369 147.715 116.959C147.25 117.544 146.675 118.189 145.985 118.889C145.605 119.269 145.175 119.649 144.695 120.029C144.215 120.409 143.71 120.749 143.175 121.039C142.64 121.334 142.085 121.574 141.515 121.759C140.945 121.944 140.375 122.039 139.81 122.039C139.05 122.039 138.335 121.904 137.67 121.639C137.005 121.369 136.425 120.964 135.935 120.409C135.44 119.859 135.05 119.164 134.77 118.334C134.485 117.499 134.345 116.524 134.345 115.399C134.345 114.669 134.38 113.909 134.455 113.124C134.525 112.339 134.615 111.539 134.725 110.739C134.835 109.934 134.955 109.139 135.095 108.354C135.235 107.569 135.37 106.814 135.505 106.094C135.6 105.599 135.675 105.164 135.735 104.784C135.795 104.404 135.855 104.024 135.91 103.644C135.965 103.264 136.03 102.854 136.105 102.414C136.175 101.974 136.265 101.459 136.365 100.864C136.415 100.574 136.505 100.299 136.63 100.039C136.755 99.7736 136.91 99.5436 137.1 99.3436C137.29 99.1436 137.515 98.9836 137.77 98.8636C138.025 98.7436 138.31 98.6836 138.62 98.6836C139.38 98.6836 139.935 99.0386 140.285 99.7486L140.115 100.629C140.025 101.124 139.9 101.704 139.75 102.364C139.6 103.029 139.44 103.749 139.27 104.534C139.1 105.319 138.93 106.139 138.76 106.994C138.59 107.849 138.435 108.724 138.295 109.609C138.155 110.494 138.045 111.374 137.955 112.249C137.865 113.124 137.825 113.969 137.825 114.779C137.825 115.399 137.87 115.959 137.955 116.464C138.04 116.969 138.185 117.399 138.38 117.754C138.575 118.109 138.83 118.384 139.135 118.579C139.445 118.774 139.815 118.874 140.245 118.874C140.675 118.874 141.125 118.784 141.59 118.604C142.055 118.424 142.52 118.189 142.985 117.899C143.45 117.609 143.91 117.279 144.36 116.909C144.81 116.539 145.225 116.164 145.62 115.789C146.01 115.414 146.36 115.049 146.67 114.694C146.98 114.339 147.23 114.034 147.425 113.774C147.52 113.649 147.62 113.519 147.725 113.379C147.835 113.239 147.955 113.109 148.095 112.984C148.235 112.859 148.385 112.759 148.545 112.674C148.705 112.594 148.875 112.549 149.06 112.549C149.205 112.549 149.33 112.609 149.43 112.729C149.535 112.849 149.585 113.019 149.585 113.244L149.6 113.249Z" fill="#C60500"/>
<path d="M164.85 112.783C164.85 113.018 164.76 113.323 164.58 113.688C164.4 114.053 164.155 114.458 163.84 114.908C163.525 115.358 163.155 115.833 162.72 116.343C162.29 116.853 161.82 117.373 161.315 117.908C160.77 118.493 160.18 119.073 159.54 119.638C158.9 120.203 158.225 120.748 157.5 121.273C156.79 121.788 156.09 122.188 155.4 122.468C154.71 122.753 154.055 122.893 153.44 122.893C152.72 122.893 152.095 122.773 151.565 122.528C151.035 122.283 150.58 121.958 150.205 121.538C149.83 121.123 149.525 120.643 149.285 120.103C149.05 119.563 148.86 118.993 148.72 118.388C148.58 117.783 148.485 117.178 148.435 116.558C148.385 115.938 148.355 115.353 148.355 114.798C148.355 114.583 148.37 114.258 148.4 113.823C148.43 113.393 148.475 112.933 148.53 112.458C148.585 111.983 148.65 111.518 148.715 111.068C148.78 110.623 148.85 110.268 148.925 110.013C149.08 109.508 149.435 109.028 149.99 108.578C150.525 108.148 151.12 107.928 151.78 107.928C152.44 107.928 152.785 108.328 152.785 109.133C152.785 109.513 152.75 109.918 152.685 110.343C152.62 110.768 152.545 111.188 152.46 111.603C152.325 112.353 152.235 113.033 152.18 113.633C152.13 114.233 152.105 114.768 152.105 115.233C152.105 115.758 152.135 116.268 152.195 116.763C152.255 117.258 152.345 117.698 152.465 118.083C152.585 118.468 152.735 118.778 152.915 119.018C153.095 119.253 153.31 119.373 153.555 119.373C153.865 119.373 154.18 119.343 154.51 119.288C154.84 119.233 155.235 119.078 155.7 118.833C156.585 118.348 157.525 117.698 158.525 116.873C158.875 116.583 159.275 116.243 159.72 115.848C160.17 115.453 160.615 115.043 161.055 114.628C161.495 114.213 161.915 113.803 162.305 113.398C162.695 112.993 163.005 112.653 163.23 112.363C163.26 112.313 163.305 112.248 163.36 112.168C163.415 112.088 163.48 112.013 163.555 111.928C163.625 111.848 163.705 111.778 163.795 111.718C163.88 111.663 163.965 111.633 164.05 111.633C164.215 111.633 164.335 111.658 164.415 111.703C164.495 111.748 164.575 111.893 164.67 112.128C164.785 112.383 164.84 112.603 164.84 112.778L164.85 112.783ZM155.25 100.078C155.25 100.418 155.2 100.738 155.095 101.043C154.99 101.348 154.845 101.633 154.645 101.898C154.255 102.443 153.65 102.718 152.84 102.718C152.55 102.718 152.26 102.693 151.96 102.643C151.66 102.593 151.395 102.518 151.155 102.428C150.92 102.338 150.725 102.218 150.57 102.073C150.415 101.928 150.34 101.763 150.34 101.578C150.34 101.258 150.42 100.923 150.585 100.568C150.75 100.213 150.965 99.8834 151.225 99.5784C151.485 99.2734 151.775 99.0234 152.09 98.8234C152.405 98.6234 152.705 98.5234 152.995 98.5234C153.355 98.5234 153.675 98.5484 153.95 98.5934C154.225 98.6384 154.46 98.7184 154.655 98.8334C154.845 98.9484 154.99 99.1084 155.095 99.3134C155.2 99.5184 155.25 99.7784 155.25 100.083V100.078Z" fill="#C60500"/>
<path d="M189.37 111.628C189.37 111.823 189.335 112.038 189.26 112.268C189.19 112.498 189.1 112.728 188.99 112.953C188.88 113.178 188.765 113.393 188.635 113.593C188.505 113.793 188.385 113.963 188.27 114.093C187.94 114.503 187.575 114.943 187.165 115.403C186.76 115.868 186.335 116.323 185.89 116.778C185.445 117.233 184.995 117.668 184.53 118.083C184.065 118.498 183.605 118.863 183.14 119.173C182.78 119.418 182.43 119.648 182.1 119.858C181.765 120.068 181.42 120.258 181.065 120.423C180.71 120.588 180.335 120.718 179.94 120.808C179.545 120.903 179.11 120.948 178.635 120.948C177.865 120.948 177.22 120.793 176.715 120.483C176.205 120.173 175.79 119.763 175.47 119.248C175.15 118.733 174.905 118.143 174.735 117.478C174.565 116.813 174.435 116.123 174.34 115.403C174.205 114.423 174.055 113.653 173.89 113.078C173.725 112.503 173.525 112.223 173.29 112.223C173.085 112.223 172.885 112.273 172.69 112.368C172.495 112.468 172.25 112.673 171.955 112.993C171.66 113.313 171.29 113.778 170.845 114.388C170.395 115.003 169.815 115.818 169.095 116.833C168.85 117.183 168.545 117.573 168.19 118.008C167.835 118.438 167.46 118.853 167.07 119.253C166.68 119.648 166.29 119.998 165.905 120.303C165.52 120.608 165.16 120.813 164.83 120.928C163.535 120.638 162.885 119.398 162.885 117.208C162.885 116.653 162.945 115.833 163.07 114.753C163.13 114.268 163.2 113.758 163.28 113.223C163.36 112.688 163.455 112.148 163.575 111.608C163.695 111.068 163.835 110.538 164 110.018C164.165 109.498 164.355 109.018 164.57 108.573C164.695 108.328 164.83 108.133 164.985 107.988C165.14 107.843 165.295 107.738 165.455 107.663C165.615 107.593 165.78 107.543 165.955 107.523C166.13 107.503 166.305 107.493 166.48 107.493C166.635 107.493 166.785 107.533 166.93 107.608C167.075 107.683 167.205 107.798 167.315 107.938C167.425 108.078 167.52 108.258 167.585 108.463C167.65 108.668 167.685 108.903 167.685 109.173C167.685 109.408 167.665 109.638 167.625 109.853C167.585 110.068 167.525 110.293 167.455 110.523C167.385 110.753 167.31 110.998 167.23 111.258C167.15 111.518 167.075 111.808 166.99 112.138C166.94 112.353 166.865 112.633 166.765 112.973C166.665 113.313 166.57 113.663 166.47 114.033C166.37 114.398 166.28 114.758 166.2 115.108C166.12 115.458 166.065 115.753 166.045 115.988C166.23 115.773 166.445 115.503 166.685 115.178C166.925 114.853 167.18 114.503 167.45 114.128C167.72 113.753 167.99 113.368 168.27 112.978C168.55 112.588 168.825 112.218 169.105 111.868C169.465 111.413 169.82 110.988 170.17 110.588C170.52 110.188 170.89 109.838 171.275 109.548C171.66 109.253 172.08 109.023 172.535 108.853C172.99 108.683 173.495 108.598 174.065 108.598C174.735 108.598 175.28 108.733 175.7 109.008C176.12 109.278 176.46 109.658 176.71 110.143C176.96 110.628 177.15 111.198 177.275 111.863C177.4 112.528 177.495 113.248 177.57 114.033C177.61 114.433 177.665 114.848 177.73 115.268C177.795 115.688 177.895 116.073 178.03 116.418C178.165 116.763 178.34 117.048 178.555 117.268C178.77 117.488 179.04 117.598 179.36 117.598C179.835 117.598 180.35 117.473 180.91 117.218C181.47 116.968 182.06 116.618 182.68 116.178C183.3 115.738 183.93 115.223 184.58 114.633C185.23 114.048 185.875 113.418 186.525 112.748C186.73 112.533 186.93 112.318 187.12 112.108C187.31 111.898 187.495 111.708 187.67 111.538C187.845 111.368 188.015 111.233 188.18 111.128C188.345 111.023 188.51 110.973 188.675 110.973C188.735 110.973 188.81 110.983 188.89 110.998C188.97 111.013 189.05 111.043 189.12 111.093C189.19 111.138 189.25 111.203 189.3 111.288C189.345 111.373 189.37 111.483 189.37 111.628Z" fill="#C60500"/>
<path d="M198.37 110.903C198.285 111.583 198.225 112.338 198.175 113.163C198.125 113.988 198.065 114.903 197.98 115.903C197.95 116.273 197.91 116.703 197.865 117.193C197.82 117.683 197.765 118.183 197.71 118.693C197.655 119.203 197.595 119.703 197.535 120.193C197.475 120.683 197.41 121.118 197.35 121.498C197.26 122.093 197.14 122.728 196.995 123.388C196.85 124.053 196.665 124.713 196.43 125.363C196.2 126.018 195.92 126.638 195.595 127.233C195.27 127.828 194.88 128.348 194.42 128.808C193.96 129.268 193.43 129.628 192.82 129.898C192.21 130.168 191.52 130.298 190.735 130.298C190.25 130.298 189.76 130.243 189.27 130.128C188.775 130.013 188.29 129.858 187.82 129.663C187.345 129.468 186.895 129.238 186.46 128.978C186.03 128.718 185.63 128.433 185.27 128.138C184.385 127.408 183.75 126.708 183.37 126.038C183.245 125.823 183.15 125.633 183.085 125.468C183.02 125.303 182.985 125.123 182.985 124.928C182.985 124.703 183.055 124.513 183.195 124.358C183.335 124.203 183.505 124.128 183.71 124.128C183.805 124.128 183.92 124.168 184.06 124.243C184.2 124.318 184.335 124.408 184.47 124.508C184.605 124.608 184.72 124.698 184.825 124.788C184.93 124.873 184.99 124.933 185.01 124.968C185.895 125.803 186.82 126.418 187.78 126.823C188.74 127.223 189.72 127.423 190.705 127.423C191.3 127.423 191.8 127.228 192.205 126.843C192.605 126.458 192.935 125.978 193.195 125.398C193.45 124.823 193.655 124.193 193.805 123.513C193.955 122.833 194.075 122.203 194.17 121.613C194.265 121.008 194.34 120.328 194.41 119.583C194.475 118.838 194.54 118.113 194.605 117.413C194.13 117.898 193.61 118.363 193.045 118.818C192.48 119.273 191.885 119.668 191.27 120.013C190.65 120.358 190.02 120.638 189.38 120.848C188.735 121.058 188.1 121.163 187.475 121.163C187.145 121.163 186.835 121.093 186.54 120.948C186.245 120.803 185.99 120.598 185.775 120.338C185.56 120.073 185.39 119.758 185.265 119.388C185.14 119.018 185.08 118.603 185.08 118.138C185.08 117.563 185.185 116.938 185.39 116.263C185.595 115.588 185.86 114.913 186.18 114.233C186.5 113.553 186.855 112.898 187.245 112.263C187.635 111.628 188.015 111.068 188.39 110.573C188.765 110.078 189.215 109.563 189.755 109.023C190.295 108.483 190.88 107.988 191.505 107.543C192.13 107.093 192.78 106.728 193.45 106.438C194.12 106.148 194.765 106.003 195.395 106.003C195.765 106.003 196.14 106.053 196.52 106.158C196.9 106.263 197.245 106.418 197.555 106.628C197.865 106.838 198.115 107.103 198.31 107.413C198.505 107.728 198.605 108.093 198.605 108.518C198.605 108.683 198.6 108.863 198.58 109.068C198.565 109.268 198.545 109.478 198.52 109.693C198.495 109.908 198.47 110.118 198.445 110.328C198.42 110.533 198.395 110.723 198.375 110.898V110.913L198.37 110.903ZM194.97 113.558C195.02 113.238 195.07 112.863 195.115 112.433C195.16 112.003 195.21 111.453 195.26 110.798C195.28 110.448 195.305 110.188 195.33 110.008C195.355 109.833 195.37 109.688 195.37 109.578C195.37 109.353 195.355 109.188 195.325 109.083C195.295 108.958 195.215 108.873 195.095 108.828C194.975 108.783 194.775 108.753 194.51 108.743C194.045 109.053 193.585 109.423 193.13 109.853C192.67 110.283 192.235 110.753 191.82 111.258C191.405 111.763 191.01 112.288 190.645 112.833C190.28 113.378 189.96 113.908 189.68 114.423C189.38 114.978 189.145 115.528 188.97 116.068C188.795 116.608 188.705 117.073 188.705 117.463C188.705 117.628 188.76 117.738 188.875 117.793C188.99 117.848 189.115 117.878 189.26 117.878C189.57 117.878 189.915 117.803 190.295 117.648C190.675 117.493 191.06 117.308 191.445 117.083C191.83 116.863 192.2 116.628 192.555 116.378C192.91 116.128 193.215 115.913 193.475 115.728C193.57 115.668 193.695 115.558 193.855 115.403C194.015 115.248 194.175 115.073 194.335 114.873C194.495 114.673 194.635 114.458 194.76 114.223C194.885 113.993 194.955 113.768 194.975 113.553L194.97 113.558Z" fill="#C60500"/>
</svg>
