<svg width="92" height="49" viewBox="0 0 92 49" fill="none" xmlns="http://www.w3.org/2000/svg">
<path d="M44.2369 12.232L44.9944 12.1064C48.585 11.8964 52.1831 11.5926 55.7719 11.4051C57.1706 11.332 58.59 11.3526 59.9831 11.2176C59.6963 10.7695 59.0025 10.4282 58.4981 10.3945C58.2525 10.3776 58.065 10.4582 57.8363 10.4601C49.1063 10.5445 40.3744 10.4451 31.665 10.1432C29.8744 10.0814 28.0687 9.93136 26.28 9.88449C25.5225 9.86386 24.7631 9.90511 24.0056 9.88636C24.03 9.76636 24.1256 9.77199 24.2156 9.75886C25.6331 9.55636 27.0712 9.46824 28.4869 9.25261L27.7931 9.12324C23.4825 9.10074 19.14 9.02011 14.9212 10.0139L15.9506 10.2651C13.3125 11.077 10.8712 12.4082 8.43937 13.7207C8.01937 13.8614 7.485 14.4276 7.13812 14.5776C7.11 14.5889 7.03875 14.5945 7.04812 14.5476C8.25937 13.4676 9.66187 12.6614 11.0062 11.7801C11.0681 11.7407 11.1919 11.6489 11.0156 11.6639C10.5375 11.8964 10.035 12.0689 9.54937 12.2864C7.845 13.0457 5.955 13.8651 4.30875 14.7257C3.51 15.1439 2.60062 15.6089 2.04937 16.3551C2.03437 16.1301 2.25937 15.7889 2.41312 15.5939C3.15375 14.6432 5.87062 13.2276 7.00687 12.6032C9.34312 11.317 11.7994 10.1151 14.3306 9.29949C19.7062 7.56886 25.4119 7.63449 30.99 7.52761C35.4112 4.21261 40.4006 1.57074 45.8006 0.522611C49.7212 -0.238639 53.67 0.00511146 57.6225 0.185111L57.5025 0.501986L57.6544 0.560111C57.6937 0.560111 57.8681 0.102611 58.2619 0.119486C58.395 0.125111 58.4737 0.231986 58.62 0.254486C59.2313 0.344486 60.0581 0.231986 60.6675 0.331361C60.7219 0.340736 60.8494 0.359486 60.8325 0.441986C59.9381 0.348236 58.9988 0.657611 58.1363 0.695111C57.7519 0.711986 57.3356 0.368861 57.1988 0.884486C57.81 1.12261 58.4719 0.888237 59.0756 1.13949L58.9556 1.45449C59.3512 1.64574 59.3306 1.37574 59.5781 1.21261C63.7069 1.98886 67.5469 3.75324 71.5069 5.08824C74.2162 6.00136 77.0119 6.61824 79.8525 6.90886C79.8675 7.01949 79.7156 6.96886 79.6406 6.97074C78.5925 7.01199 77.5369 7.07199 76.4906 7.16199C74.4487 7.33636 72.2156 7.50324 70.2 7.80511C68.595 8.04511 66.8625 8.44074 65.4656 9.31636C65.2931 9.33324 65.415 9.23949 65.4675 9.19261C66.4406 8.30199 67.9125 7.70011 69.1294 7.28761C69.1406 7.17511 68.925 7.22011 68.8575 7.22574C66.8981 7.38511 65.0194 8.32261 63.5569 9.66511C61.2319 11.8007 62.3438 13.9551 59.1281 14.7557C58.86 14.8232 58.2656 14.8326 58.2975 14.7782C60.3037 13.4264 59.9512 12.9707 59.985 12.2339H44.2369V12.232ZM67.7981 4.81074C67.4419 4.52574 66.9131 4.36074 66.48 4.19386C62.1263 2.49699 57.465 1.46011 52.8094 1.32136C52.3763 1.30824 51.9375 1.33636 51.5044 1.32511L52.17 1.51449C48.6675 1.51261 45.1162 2.20636 41.8425 3.47949C39.5588 4.36824 37.4606 5.54761 35.4825 7.03074L35.3925 7.00074L36.7856 5.54199C36.795 5.49511 36.7275 5.50074 36.6956 5.51199C36.3544 5.62824 35.2669 6.41011 34.8881 6.66511C34.2544 7.09074 33.63 7.53886 33.03 8.01699C33.8981 8.56074 34.9462 8.83074 35.9494 8.92449C38.8012 7.51636 41.3212 5.77261 44.4637 5.08824C45.6806 4.82386 47.5125 4.35324 48.6919 4.25199C48.9412 4.23136 49.6631 4.18636 49.8094 4.41511L49.8225 4.66824L47.625 6.46261C51.0825 5.42386 54.6413 4.71886 58.2225 4.30824L53.1469 5.49136C51.5137 5.85324 49.9087 6.48511 48.2906 6.87511C47.7825 6.99699 46.0144 7.49011 46.8094 6.33886C47.1431 5.85699 48.0131 5.47636 48.4894 5.11824C48.585 5.04699 48.795 4.95324 48.7725 4.81261C45.1369 5.30949 41.1131 6.25449 38.415 8.99761C45.1875 8.95261 51.9563 8.87199 58.7344 8.80636C62.7506 7.57074 66.4425 5.84949 70.7906 6.33136L74.2706 6.58636L70.515 5.85886C69.8381 5.73324 69.0338 5.31886 68.3644 5.25511C68.2256 5.24199 68.2144 5.26636 68.3494 5.33386C68.5144 5.41636 68.7431 5.44261 68.82 5.63386C67.2206 5.78949 65.5894 5.50824 64.035 6.01449L64.8844 5.54011L66.2156 5.09574C65.175 4.29511 63.9075 4.01199 62.7263 3.54886C62.6494 3.51886 62.5406 3.53386 62.5219 3.41574L67.7906 4.80886L67.7981 4.81074Z" fill="white"/>
<path d="M27.2681 11.9151C27.2794 12.007 27.1088 12.0295 27.0488 12.0351C26.4844 12.1007 25.9069 12.0782 25.3687 12.2957L25.3988 12.4851C25.2225 12.4401 23.2256 11.857 23.2256 12.0726C24.855 12.6689 26.3306 13.7564 27.2681 15.2751C27.1538 15.3032 27.1219 15.2095 27.0544 15.1495C22.9894 11.617 17.7956 11.2139 13.9819 15.3726L13.3069 16.3532C13.6125 14.3376 15.4575 12.757 17.2106 12.0576C19.2581 11.242 20.9475 11.4276 23.0738 11.5982C24.4706 11.7107 25.8581 11.9807 27.27 11.9151H27.2681Z" fill="white"/>
<path d="M77.8575 15.2114C76.1306 13.6776 74.1056 12.6239 71.775 12.3595C69.0019 12.0445 65.8556 13.0232 64.0069 15.1476C63.6788 15.5245 63.4444 15.9576 63.1481 16.3532C63.5644 14.437 65.13 12.8995 66.8813 12.1139C70.3913 10.5389 74.7713 11.4482 77.2819 14.3582C77.3625 14.452 77.9138 15.1495 77.8556 15.2132L77.8575 15.2114Z" fill="white"/>
<path d="M89.6812 8.74449L89.0775 8.87011C87.6994 8.95824 86.3344 9.08574 84.975 9.33511C83.2819 9.64449 79.8956 10.8464 78.39 10.297C78.0113 10.1582 77.6681 9.87699 77.2612 9.77574C76.8544 9.67449 76.5281 9.73449 76.1062 9.75886C76.0744 9.57886 76.1494 9.65386 76.245 9.61636C76.7812 9.40261 77.3756 9.33886 77.9325 9.48699C78.2569 9.57324 78.5887 9.82074 78.8794 9.87136C79.9237 10.0495 82.4044 9.23574 83.5875 9.02949C85.6125 8.67511 87.6262 8.64886 89.6775 8.74636L89.6812 8.74449Z" fill="white"/>
<path d="M5.07562 21.3989V34.0232H0V16.7189H7.02375C7.76625 16.7189 8.49375 16.8557 9.2025 17.1295C9.92063 17.4107 10.5656 17.8101 11.1375 18.3276C11.7094 18.8451 12.1594 19.4414 12.4838 20.1164C12.8175 20.8007 12.9844 21.5301 12.9844 22.3082C12.9844 23.1801 12.7838 24.022 12.3825 24.8339C11.9812 25.6457 11.4263 26.347 10.7156 26.9357L13.6631 34.0232H8.28L5.75438 28.4357V23.962C6.39563 23.962 6.90188 23.872 7.27313 23.692C7.64438 23.512 7.83 23.1501 7.83 22.6026C7.83 22.1751 7.6875 21.8676 7.40063 21.6801C7.11375 21.4926 6.7575 21.3989 6.33 21.3989H5.07375H5.07562Z" fill="white"/>
<path d="M21.315 29.9226H19.905V34.0251H14.79V22.8351C14.79 21.5357 15.0469 20.392 15.5588 19.4001C16.08 18.4176 16.8225 17.6545 17.7881 17.1126C18.7538 16.5707 19.8825 16.2989 21.1725 16.2989C22.0613 16.2989 22.8788 16.4714 23.6269 16.8182C24.375 17.1651 25.0106 17.6395 25.5375 18.2414C26.0644 18.8432 26.4694 19.5426 26.7544 20.3376C27.0413 21.1326 27.1838 21.9651 27.1838 22.837V34.027H22.0575V22.837C22.0575 22.4189 21.9525 22.0964 21.7444 21.8695C21.5344 21.6426 21.2813 21.5301 20.9813 21.5301C20.6813 21.5301 20.4281 21.6464 20.2181 21.877C20.0081 22.1076 19.905 22.4282 19.905 22.8389V25.3382H21.315V29.9264V29.9226Z" fill="white"/>
<path d="M37.7081 24.4364V34.0232H32.505V24.4364L27.6994 16.7207H32.8256L35.0813 20.3226L37.6575 16.7207H42.72L37.7081 24.4364Z" fill="white"/>
<path d="M48.09 16.7207V28.1151C48.09 28.4151 48.165 28.6551 48.315 28.8389C48.465 29.0226 48.6375 29.1145 48.8344 29.1145C49.0481 29.1145 49.2337 29.0245 49.3912 28.8445C49.5487 28.6645 49.6275 28.4207 49.6275 28.1132V16.7189H54.6263V28.0626C54.6263 28.3626 54.7087 28.6082 54.8756 28.7995C55.0425 28.9907 55.2244 29.0882 55.4212 29.0882C55.6181 29.0882 55.7906 29.002 55.9406 28.8314C56.0906 28.6607 56.1656 28.4207 56.1656 28.1132V16.7189H61.1775V28.9457C61.1775 29.9376 60.9825 30.8489 60.5944 31.6814C60.2062 32.5139 59.6344 33.1832 58.8825 33.6876C58.1306 34.192 57.2494 34.4432 56.2425 34.4432C55.4138 34.4432 54.615 34.2239 53.8463 33.7832C53.0775 33.3426 52.4831 32.7651 52.065 32.047C51.09 33.6445 49.6819 34.4432 47.835 34.4432C47.0325 34.4432 46.2619 34.2257 45.5288 33.7889C44.8031 33.3539 44.2125 32.7726 43.7606 32.0451C43.3162 31.3101 43.095 30.532 43.095 29.7126V16.7151H48.0938L48.09 16.7207Z" fill="white"/>
<path d="M70.5338 29.9226H69.1238V34.0251H64.0088V22.8351C64.0088 21.5357 64.2656 20.392 64.7775 19.4001C65.2988 18.4176 66.0413 17.6545 67.0069 17.1126C67.9725 16.5707 69.1013 16.2989 70.3913 16.2989C71.28 16.2989 72.0975 16.4714 72.8456 16.8182C73.5938 17.1651 74.2294 17.6395 74.7563 18.2414C75.2831 18.8432 75.6881 19.5426 75.9731 20.3376C76.26 21.1326 76.4025 21.9651 76.4025 22.837V34.027H71.2763V22.837C71.2763 22.4189 71.1713 22.0964 70.9631 21.8695C70.7531 21.6426 70.5 21.5301 70.2 21.5301C69.9 21.5301 69.6469 21.6464 69.4369 21.877C69.2269 22.1076 69.1238 22.4282 69.1238 22.8389V25.3382H70.5338V29.9264V29.9226Z" fill="white"/>
<path d="M79.3894 22.6289C79.3894 21.5095 79.6538 20.4632 80.1844 19.4882C80.715 18.5132 81.4444 17.7407 82.3762 17.1689C83.2987 16.5876 84.3244 16.297 85.4531 16.297C86.5819 16.297 87.6525 16.5726 88.6181 17.1239C89.5838 17.6751 90.345 18.4326 90.9 19.3982C91.455 20.3639 91.7325 21.4401 91.7325 22.6289V34.0232H86.6063V22.7826C86.6063 22.4151 86.5031 22.1376 86.2988 21.9501C86.085 21.7532 85.8281 21.6557 85.53 21.6557C85.2319 21.6557 84.9581 21.7589 84.735 21.9632C84.5044 22.1601 84.3881 22.4339 84.3881 22.7845V34.0251H79.3894V22.6307V22.6289Z" fill="white"/>
<path d="M27.0769 41.9995C27.0769 42.0689 27.0675 42.1382 27.0487 42.2057C27.03 42.2732 26.9944 42.3482 26.9419 42.4307C26.8894 42.5132 26.82 42.6107 26.7338 42.7232C26.6475 42.8357 26.5331 42.9726 26.3944 43.1339V43.1282C26.2519 43.2951 26.1 43.4601 25.9406 43.6232C25.7812 43.7882 25.6069 43.957 25.4231 44.1295C25.245 44.3001 25.0688 44.4557 24.8906 44.5982C24.7125 44.7407 24.5419 44.8645 24.375 44.9695C24.2081 45.0745 24.0525 45.1551 23.9063 45.2151C23.76 45.2751 23.6287 45.3051 23.5125 45.3051C23.2462 45.3051 23.0344 45.2432 22.875 45.1195C22.7175 44.9957 22.59 44.8289 22.4963 44.6151C22.4025 44.4032 22.3294 44.1539 22.2787 43.8651C22.2281 43.5764 22.1831 43.2707 22.14 42.9482C22.035 43.1057 21.9244 43.2764 21.8062 43.4545C21.6881 43.6326 21.5644 43.8126 21.435 43.9907C21.3056 44.1689 21.1706 44.3395 21.03 44.5064C20.8894 44.6732 20.745 44.8232 20.5988 44.9582C20.2125 45.3089 19.8169 45.5732 19.4081 45.7476C18.9994 45.922 18.5812 46.0101 18.1481 46.0101C17.9981 46.0101 17.8669 45.9707 17.7544 45.8939C17.6419 45.817 17.55 45.7176 17.4769 45.5957C17.4037 45.4739 17.3494 45.3407 17.3119 45.1964C17.2744 45.052 17.2575 44.9114 17.2575 44.7764C17.2575 44.5945 17.265 44.4389 17.28 44.3095C17.295 44.1801 17.3194 44.0714 17.3494 43.9832C17.5144 43.5089 17.7 43.057 17.9025 42.6314C18.105 42.2057 18.3544 41.7857 18.6525 41.3714C18.8381 41.1089 19.0219 40.8782 19.2019 40.6757C19.3819 40.4732 19.575 40.3064 19.7775 40.1695C19.98 40.0326 20.1994 39.9295 20.4338 39.8601C20.6681 39.7907 20.9344 39.7551 21.2269 39.7551C21.4744 39.7551 21.6769 39.8451 21.8344 40.027C21.9919 40.2089 22.1044 40.462 22.17 40.7845C22.1962 40.6382 22.2225 40.4714 22.2487 40.2857C22.2731 40.1001 22.2975 39.9051 22.3219 39.7007C22.3444 39.4964 22.3669 39.2845 22.3856 39.0632C22.4044 38.8439 22.4231 38.6245 22.4381 38.4089C22.4569 38.107 22.4831 37.8539 22.5131 37.6439C22.5431 37.4357 22.5825 37.2932 22.6294 37.2164C22.6913 37.1151 22.7681 37.0326 22.8619 36.967C22.9537 36.9014 23.0794 36.8695 23.2388 36.8695C23.3344 36.8695 23.4262 36.8845 23.5144 36.9126C23.6025 36.9407 23.6775 36.9782 23.7469 37.0232C23.8144 37.0682 23.8669 37.117 23.9063 37.1732C23.9456 37.2295 23.9644 37.2839 23.9644 37.3382C23.9644 37.3889 23.955 37.4639 23.9362 37.5632C23.9175 37.6645 23.8912 37.7957 23.8575 37.9607C23.8237 38.1257 23.7844 38.3264 23.7394 38.5626C23.6944 38.7989 23.6419 39.0801 23.5838 39.4045C23.5838 39.427 23.5781 39.4701 23.5688 39.532C23.5594 39.5939 23.5481 39.6651 23.535 39.7439C23.5219 39.8226 23.5087 39.9051 23.4937 39.9895C23.4787 40.0739 23.4675 40.1545 23.4525 40.2295C23.4375 40.3045 23.4281 40.3701 23.4169 40.4226C23.4075 40.477 23.4 40.5089 23.3963 40.522C23.3494 40.8239 23.3119 41.1032 23.28 41.362C23.2481 41.6207 23.2331 41.8795 23.2331 42.1382C23.2331 42.2545 23.2331 42.3782 23.2369 42.5095C23.2369 42.6407 23.2425 42.772 23.2463 42.907C23.25 43.0401 23.2556 43.1732 23.2631 43.3026C23.2706 43.4339 23.2819 43.5595 23.2987 43.6795C23.3025 43.7057 23.3119 43.7376 23.3269 43.7751C23.3419 43.8126 23.3625 43.8464 23.3869 43.8801C23.4113 43.9139 23.4412 43.9401 23.4769 43.9645C23.5125 43.987 23.55 44.0001 23.5931 44.0001C23.6475 44.0001 23.7056 43.9889 23.7675 43.9682C23.8294 43.9476 23.8931 43.9195 23.9606 43.8876C24.0281 43.8557 24.0938 43.8201 24.1575 43.7826C24.2213 43.7451 24.2775 43.7095 24.3281 43.6757C24.5325 43.5407 24.735 43.3945 24.9338 43.2389C25.1325 43.0832 25.3331 42.9107 25.5337 42.727C25.7306 42.5451 25.9275 42.3689 26.1244 42.1964C26.3213 42.0239 26.4956 41.857 26.6456 41.6957C26.7038 41.6376 26.7769 41.6095 26.865 41.6095C26.9269 41.6095 26.9775 41.6376 27.0187 41.6957C27.06 41.7539 27.0788 41.8532 27.0788 41.9976L27.0769 41.9995ZM21.09 42.9257C21.12 42.8901 21.1537 42.8489 21.1912 42.7982C21.2287 42.7476 21.2644 42.6932 21.3019 42.637C21.3394 42.5789 21.375 42.5207 21.4125 42.4607C21.45 42.4007 21.48 42.3464 21.5025 42.2957C21.4219 42.2414 21.3619 42.1701 21.3262 42.0782C21.2906 41.9864 21.2719 41.8964 21.2719 41.8026C21.2719 41.7632 21.2756 41.7201 21.2813 41.6695C21.2869 41.6189 21.2944 41.5682 21.3019 41.5157C21.3094 41.4632 21.3169 41.4145 21.3225 41.3676C21.3281 41.3207 21.3319 41.287 21.3319 41.2626C21.3319 41.212 21.3169 41.1595 21.285 41.1032C21.2531 41.047 21.2156 40.9964 21.1725 40.9495C21.1294 40.9026 21.0806 40.8651 21.0281 40.8332C20.9756 40.8032 20.9288 40.7864 20.8856 40.7864C20.7938 40.7864 20.685 40.8407 20.5612 40.9514C20.4375 41.062 20.3081 41.1989 20.1731 41.3657C20.0381 41.5326 19.9031 41.7126 19.77 41.9095C19.6369 42.1064 19.515 42.2901 19.4025 42.4589C19.2788 42.652 19.1738 42.832 19.0838 43.0007C18.9956 43.1676 18.9169 43.3195 18.8512 43.4545C18.6469 43.8951 18.5437 44.242 18.5437 44.497C18.5437 44.7295 18.5869 44.8439 18.6713 44.8439C18.7481 44.8439 18.8494 44.8176 18.9731 44.7632C19.0969 44.7089 19.2412 44.6264 19.4081 44.5139C19.5825 44.3939 19.7381 44.2795 19.8806 44.1689C20.0213 44.0582 20.1412 43.9514 20.2425 43.8482C20.4581 43.6289 20.6344 43.4414 20.7694 43.2895C20.9044 43.1376 21.0131 43.0139 21.0938 42.922L21.09 42.9257Z" fill="#C60500"/>
<path d="M33.4688 41.9995C33.4688 42.0689 33.4162 42.1964 33.3131 42.382C33.1125 42.6707 32.8894 42.9576 32.6438 43.2407C32.3981 43.5239 32.1375 43.7939 31.86 44.0489C31.5825 44.3039 31.2919 44.5401 30.9919 44.7576C30.69 44.9751 30.3863 45.1645 30.0769 45.322C29.7675 45.4795 29.46 45.6051 29.1544 45.6951C28.8469 45.7851 28.5469 45.832 28.2544 45.832C27.5944 45.832 27.0806 45.6464 26.7113 45.2732C26.3419 44.9001 26.1581 44.3376 26.1581 43.5857C26.1581 43.2839 26.1788 42.9895 26.2219 42.697C26.265 42.4045 26.3344 42.1176 26.4338 41.8345C26.5331 41.5514 26.6606 41.272 26.8181 40.9982C26.9756 40.7245 27.1706 40.4582 27.4031 40.1995C27.4875 40.1039 27.5869 40.0101 27.7013 39.922C27.8156 39.8339 27.9356 39.7532 28.065 39.6839C28.1944 39.6145 28.3294 39.5582 28.47 39.517C28.6106 39.4739 28.7513 39.4532 28.89 39.4532C29.0944 39.4532 29.2706 39.4926 29.4206 39.5695C29.5688 39.6464 29.6925 39.7495 29.7881 39.8789C29.8838 40.0082 29.9569 40.1564 30.0019 40.3251C30.0469 40.4939 30.0713 40.6701 30.0713 40.8557C30.0713 41.1989 29.9438 41.5551 29.6888 41.9245C29.4338 42.2939 29.0813 42.6707 28.6294 43.057C28.4831 43.1807 28.3125 43.3139 28.1194 43.4601C27.9263 43.6045 27.7106 43.7676 27.4706 43.9495C27.4781 44.0451 27.5063 44.137 27.555 44.2214C27.6038 44.3057 27.6694 44.3807 27.7519 44.4445C27.8344 44.5082 27.9338 44.5589 28.05 44.5945C28.1663 44.632 28.2975 44.6489 28.4438 44.6489C28.6331 44.6489 28.8338 44.6245 29.0456 44.5757C29.2575 44.527 29.4675 44.4632 29.6775 44.3826C29.8875 44.302 30.0881 44.2082 30.285 44.1014C30.4819 43.9945 30.6619 43.8839 30.8231 43.7676C31.1081 43.5632 31.3838 43.342 31.6481 43.1039C31.9125 42.8657 32.1675 42.6239 32.415 42.3764L32.7225 42.0689C32.9344 41.8795 33.1162 41.7857 33.2662 41.7857C33.3431 41.7857 33.3956 41.812 33.4256 41.8645C33.4538 41.917 33.4688 41.962 33.4688 42.0014V41.9995ZM28.9519 40.9345C28.9519 40.8501 28.9425 40.7695 28.9256 40.6907C28.9088 40.6139 28.8806 40.5651 28.8413 40.5464C28.71 40.5464 28.5694 40.6026 28.4213 40.7151C28.2731 40.8276 28.1306 40.987 27.9956 41.1932C27.8606 41.3995 27.7406 41.6489 27.6338 41.9395C27.5269 42.2301 27.45 42.5545 27.3994 42.9089C27.5813 42.7739 27.7631 42.6314 27.9469 42.4832C28.1306 42.3351 28.2956 42.1795 28.4456 42.0164C28.5938 41.8532 28.7156 41.6826 28.8113 41.5045C28.905 41.3245 28.9538 41.1351 28.9538 40.9345H28.9519Z" fill="#C60500"/>
<path d="M38.5913 40.9457C38.5913 41.0189 38.5763 41.0864 38.5444 41.1464C38.5125 41.2064 38.475 41.2607 38.4281 41.3076C38.3812 41.3564 38.3306 41.3995 38.2744 41.4389C38.2181 41.4782 38.1656 41.512 38.115 41.5439C37.9406 41.6207 37.755 41.6882 37.5562 41.7464C37.3575 41.8045 37.1588 41.8532 36.9619 41.8945C36.765 41.9357 36.5738 41.9695 36.3863 41.9957C36.1988 42.022 36.0262 42.0464 35.8687 42.0651C35.76 42.0764 35.6475 42.0895 35.5294 42.1026C35.4113 42.1157 35.2969 42.1289 35.1844 42.1401C35.0719 42.1514 34.9687 42.1626 34.8712 42.1739C34.7756 42.1851 34.6913 42.1964 34.6219 42.2095C34.5375 42.5376 34.4569 42.8526 34.3819 43.1526C34.3069 43.4526 34.2413 43.7376 34.1888 44.0039C34.1813 44.0507 34.17 44.1145 34.1531 44.1951C34.1363 44.2757 34.1212 44.3657 34.1044 44.4614C34.0875 44.557 34.0706 44.6582 34.0556 44.7651C34.0406 44.872 34.0256 44.9714 34.0125 45.067C33.9994 45.1607 33.9881 45.247 33.9806 45.322C33.9731 45.397 33.9694 45.4551 33.9694 45.4926C33.9694 45.6276 33.99 45.7232 34.0331 45.7795C34.0763 45.8357 34.1175 45.8807 34.1606 45.9164C34.2375 45.9782 34.3031 46.0382 34.3538 46.0964C34.4044 46.1545 34.4325 46.2332 34.4325 46.3345C34.4325 46.4114 34.4063 46.4845 34.3519 46.552C34.2975 46.6195 34.23 46.6776 34.1494 46.7282C34.0688 46.7789 33.9806 46.8182 33.8888 46.8501C33.7969 46.882 33.7088 46.897 33.6281 46.897C33.4894 46.897 33.3638 46.8632 33.2513 46.7957C33.1388 46.7282 33.0431 46.6382 32.9625 46.5257C32.8819 46.4132 32.82 46.2857 32.7769 46.1432C32.7338 46.0007 32.7131 45.8545 32.7131 45.7026C32.7131 45.4476 32.7319 45.1682 32.7713 44.8626C32.8106 44.557 32.865 44.2514 32.94 43.942C32.9719 43.807 33.0038 43.6589 33.0413 43.4957C33.0788 43.3345 33.1125 43.1789 33.1425 43.0326C33.1725 42.8864 33.2006 42.7551 33.2231 42.6426C33.2456 42.5282 33.2625 42.4532 33.27 42.4139C33.1894 42.4176 33.0713 42.4289 32.9194 42.4476C32.7675 42.4664 32.5856 42.4757 32.3775 42.4757C32.2031 42.4757 32.0569 42.4645 31.9369 42.4439C31.8169 42.4232 31.7194 42.3839 31.6425 42.3257C31.5656 42.2676 31.5094 42.1889 31.4737 42.0876C31.4381 41.9864 31.4212 41.8551 31.4212 41.6939C31.4212 41.602 31.455 41.527 31.5206 41.4707C31.5862 41.4145 31.6669 41.3714 31.7644 41.3432C31.8619 41.3151 31.9612 41.2945 32.0662 41.2851C32.1712 41.2757 32.2631 41.2701 32.3438 41.2701C32.3831 41.2701 32.4506 41.2645 32.5462 41.2551C32.6419 41.2457 32.7488 41.2364 32.8613 41.227C32.9756 41.2176 33.0844 41.2082 33.1912 41.1989C33.2981 41.1895 33.3787 41.1839 33.4369 41.1839C33.4556 41.1839 33.48 41.1464 33.51 41.0732C33.5381 41.0001 33.5681 40.9045 33.6 40.7901C33.63 40.6739 33.6619 40.5464 33.6956 40.4057C33.7275 40.2651 33.7594 40.1264 33.7913 39.9895C33.8231 39.8526 33.8494 39.727 33.8756 39.6107C33.9 39.4945 33.9206 39.4045 33.9356 39.3389C33.9787 39.1776 34.0144 38.9957 34.0425 38.7951C34.0706 38.5945 34.1156 38.4051 34.1719 38.2251C34.2281 38.0451 34.3125 37.8951 34.4175 37.7732C34.5244 37.6514 34.6744 37.5914 34.8712 37.5914C35.0794 37.5914 35.2331 37.6364 35.3344 37.7282C35.4356 37.8201 35.4844 37.9682 35.4844 38.1764C35.4844 38.272 35.475 38.3864 35.4581 38.5176C35.4412 38.6489 35.4113 38.7801 35.3681 38.9114C35.2763 39.2076 35.1956 39.487 35.13 39.7457C35.0644 40.0045 35.0119 40.2295 34.9706 40.4207C34.9294 40.612 34.8919 40.8164 34.8581 41.032C35.0156 41.032 35.1675 41.032 35.3119 41.0282C35.4562 41.0282 35.6044 41.0226 35.7544 41.017C35.9044 41.0114 36.0619 41.002 36.2269 40.9907C36.3919 40.9795 36.57 40.9607 36.7631 40.9382C36.9863 40.912 37.1756 40.8839 37.3313 40.8576C37.485 40.8314 37.6219 40.8051 37.74 40.7826C37.8581 40.7601 37.965 40.7395 38.0606 40.7245C38.1562 40.7095 38.2575 40.702 38.3625 40.702C38.4169 40.702 38.4675 40.717 38.5162 40.7451C38.565 40.7732 38.5894 40.8426 38.5894 40.9514L38.5913 40.9457Z" fill="#C60500"/>
<path d="M45.5906 42.1157C45.5906 42.1626 45.5813 42.217 45.5644 42.2807C45.5475 42.3445 45.525 42.4082 45.4969 42.472C45.4706 42.5357 45.4406 42.5976 45.4069 42.6576C45.375 42.7176 45.3431 42.7682 45.3113 42.8114C45.2925 42.8376 45.2606 42.877 45.2194 42.9239C45.1762 42.9726 45.1294 43.027 45.075 43.0851C45.0206 43.1451 44.9606 43.2089 44.8931 43.2782C44.8256 43.3476 44.7562 43.417 44.6869 43.4864C44.4637 43.6945 44.2369 43.9007 44.0062 44.1032C43.7756 44.3057 43.5356 44.4857 43.2862 44.6414C43.035 44.797 42.7725 44.9245 42.4988 45.0201C42.225 45.1157 41.9325 45.1645 41.625 45.1645C41.4938 45.1645 41.3606 45.1364 41.2256 45.0782C41.0906 45.0201 40.965 44.9414 40.8487 44.8401C40.7325 44.7389 40.6312 44.6189 40.545 44.4782C40.4587 44.3376 40.3969 44.1857 40.3631 44.0245C40.2937 44.1407 40.2038 44.2645 40.0913 44.3976C39.9788 44.5307 39.8569 44.6639 39.7237 44.7932C39.5906 44.9245 39.4519 45.0482 39.3094 45.1664C39.1669 45.2845 39.0337 45.3857 38.91 45.4701C38.8256 45.5282 38.7225 45.5882 38.6006 45.6501C38.4787 45.712 38.3513 45.7682 38.2163 45.8207C38.0813 45.8732 37.9444 45.9145 37.8075 45.9482C37.6706 45.982 37.545 45.997 37.4287 45.997C37.2431 45.997 37.0819 45.9445 36.9431 45.8376C36.8044 45.7307 36.69 45.6014 36.5981 45.4476C36.5081 45.2939 36.4406 45.1289 36.3956 44.9564C36.3506 44.782 36.33 44.6264 36.33 44.4876C36.33 44.2326 36.3675 43.9739 36.4425 43.7095C36.5175 43.4451 36.615 43.1882 36.7312 42.937C36.8475 42.6857 36.9806 42.4476 37.125 42.2189C37.2694 41.992 37.4119 41.7895 37.5506 41.6114C37.6969 41.4257 37.8731 41.242 38.0775 41.0582C38.2819 40.8745 38.4956 40.7114 38.7206 40.567C38.9438 40.4226 39.165 40.3064 39.3844 40.2164C39.6019 40.1282 39.7969 40.0832 39.9656 40.0832C40.0575 40.0832 40.1531 40.087 40.2525 40.0926C40.3519 40.0982 40.4475 40.1076 40.545 40.1189C40.6406 40.1301 40.7344 40.147 40.8225 40.1714C40.9106 40.1939 40.9894 40.2239 41.0606 40.2576C41.1075 40.2895 41.1581 40.3439 41.2144 40.4226C41.2706 40.5014 41.3231 40.5876 41.37 40.6776C41.4187 40.7676 41.46 40.8576 41.4937 40.9476C41.5294 41.0357 41.5462 41.1051 41.5462 41.1557C41.5462 41.2645 41.5294 41.392 41.4975 41.5401C41.4656 41.6882 41.4281 41.8439 41.3869 42.007C41.3456 42.1701 41.3081 42.3351 41.2744 42.5057C41.2388 42.6764 41.2219 42.8376 41.2219 42.9914C41.2219 43.1001 41.2369 43.2089 41.2688 43.3214C41.3006 43.4339 41.3437 43.5351 41.4019 43.6251C41.46 43.7151 41.5294 43.7901 41.61 43.8482C41.6906 43.9064 41.7825 43.9345 41.8819 43.9345C42.1087 43.9345 42.3356 43.8914 42.5587 43.807C42.7819 43.7226 43.0069 43.6045 43.23 43.4564C43.4531 43.3082 43.6781 43.132 43.9012 42.9295C44.1244 42.727 44.3512 42.5076 44.5781 42.2732C44.5856 42.2732 44.6175 42.2451 44.67 42.187C44.7244 42.1289 44.7881 42.0651 44.8631 41.9957C44.9381 41.9264 45.0169 41.8626 45.1013 41.8045C45.1856 41.7464 45.2569 41.7182 45.3187 41.7182C45.4312 41.7182 45.5044 41.752 45.5381 41.8176C45.5737 41.8832 45.5906 41.9845 45.5906 42.1195V42.1157ZM40.3294 41.5195C40.3294 41.4857 40.3219 41.4445 40.3087 41.3976C40.2956 41.3507 40.2769 41.3076 40.2562 41.2682C40.2356 41.227 40.2112 41.1932 40.1831 41.1632C40.1569 41.1351 40.1306 41.1201 40.1081 41.1201C39.8531 41.1201 39.6206 41.1895 39.4106 41.3264C39.2006 41.4632 38.9813 41.6489 38.7544 41.8851C38.6269 42.0126 38.49 42.1851 38.3456 42.4007C38.2013 42.6164 38.0662 42.847 37.9425 43.0889C37.8187 43.3307 37.7175 43.5745 37.635 43.8182C37.5544 44.062 37.5131 44.2757 37.5131 44.4614C37.5131 44.5082 37.5169 44.5532 37.5225 44.5982C37.5281 44.6432 37.5394 44.6826 37.5581 44.7164C37.575 44.7501 37.5994 44.7801 37.6312 44.8026C37.6612 44.8251 37.7025 44.8382 37.7531 44.8382C37.8994 44.8382 38.0663 44.7914 38.2519 44.6957C38.4375 44.602 38.6231 44.4782 38.8106 44.3245C38.9981 44.1726 39.18 43.9964 39.3544 43.7976C39.5306 43.5989 39.6769 43.3945 39.7969 43.1864C39.9431 42.9314 40.0688 42.6651 40.1738 42.3876C40.2788 42.1101 40.3294 41.8195 40.3294 41.5195Z" fill="#C60500"/>
<path d="M51.0338 42.2939C51.0338 42.382 51 42.4964 50.9325 42.6332C50.865 42.7701 50.7731 42.922 50.655 43.0907C50.5369 43.2595 50.3981 43.4376 50.235 43.6289C50.0738 43.8201 49.8975 44.0151 49.7081 44.2157C49.5038 44.4351 49.2825 44.6526 49.0425 44.8645C48.8025 45.0764 48.5494 45.2807 48.2775 45.4776C48.0113 45.6707 47.7488 45.8207 47.49 45.9257C47.2313 46.0326 46.9856 46.0851 46.755 46.0851C46.485 46.0851 46.2506 46.0401 46.0519 45.9482C45.8531 45.8564 45.6825 45.7345 45.5419 45.577C45.4013 45.4214 45.2869 45.2414 45.1969 45.0389C45.1088 44.8364 45.0375 44.6226 44.985 44.3957C44.9325 44.1689 44.8969 43.942 44.8781 43.7095C44.8594 43.477 44.8481 43.2576 44.8481 43.0495C44.8481 42.9689 44.8538 42.847 44.865 42.6839C44.8763 42.5226 44.8931 42.3501 44.9138 42.172C44.9344 41.9939 44.9588 41.8195 44.9831 41.6507C45.0075 41.4839 45.0338 41.3507 45.0619 41.2551C45.12 41.0657 45.2531 40.8857 45.4613 40.717C45.6619 40.5557 45.885 40.4732 46.1325 40.4732C46.38 40.4732 46.5094 40.6232 46.5094 40.9251C46.5094 41.0676 46.4963 41.2195 46.4719 41.3789C46.4475 41.5382 46.4194 41.6957 46.3875 41.8514C46.3369 42.1326 46.3031 42.3876 46.2825 42.6126C46.2638 42.8376 46.2544 43.0382 46.2544 43.2126C46.2544 43.4095 46.2656 43.6007 46.2881 43.7864C46.3106 43.972 46.3444 44.137 46.3894 44.2814C46.4344 44.4257 46.4906 44.542 46.5581 44.632C46.6256 44.7201 46.7063 44.7651 46.7981 44.7651C46.9144 44.7651 47.0325 44.7539 47.1563 44.7332C47.28 44.7126 47.4281 44.6545 47.6025 44.5626C47.9344 44.3807 48.2869 44.137 48.6619 43.8276C48.7931 43.7189 48.9431 43.5914 49.11 43.4432C49.2788 43.2951 49.4456 43.1414 49.6106 42.9857C49.7756 42.8301 49.9331 42.6764 50.0794 42.5245C50.2256 42.3726 50.3419 42.2451 50.4263 42.1364C50.4375 42.1176 50.4544 42.0932 50.475 42.0632C50.4956 42.0332 50.52 42.0051 50.5481 41.9732C50.5744 41.9432 50.6044 41.917 50.6381 41.8945C50.67 41.8739 50.7019 41.8626 50.7338 41.8626C50.7956 41.8626 50.8406 41.872 50.8706 41.8889C50.9006 41.9057 50.9306 41.9601 50.9663 42.0482C51.0094 42.1439 51.03 42.2264 51.03 42.292L51.0338 42.2939ZM47.4319 37.5295C47.4319 37.657 47.4131 37.777 47.3738 37.8914C47.3344 38.0057 47.28 38.1126 47.205 38.212C47.0588 38.4164 46.8319 38.5195 46.5281 38.5195C46.4194 38.5195 46.3106 38.5101 46.1981 38.4914C46.0856 38.4726 45.9863 38.4445 45.8963 38.4107C45.8081 38.377 45.735 38.332 45.6769 38.2776C45.6188 38.2232 45.5906 38.1614 45.5906 38.092C45.5906 37.972 45.6206 37.8464 45.6825 37.7132C45.7444 37.5801 45.825 37.4564 45.9225 37.342C46.02 37.2276 46.1288 37.1339 46.2469 37.0589C46.365 36.9839 46.4775 36.9464 46.5863 36.9464C46.7213 36.9464 46.8413 36.9557 46.9444 36.9726C47.0475 36.9895 47.1356 37.0195 47.2088 37.0626C47.28 37.1057 47.3344 37.1657 47.3738 37.2426C47.4131 37.3195 47.4319 37.417 47.4319 37.5314V37.5295Z" fill="#C60500"/>
<path d="M56.1 42.4682C56.1 42.5564 56.0775 42.6689 56.0325 42.802C55.9875 42.9351 55.9144 43.0889 55.8094 43.2651C55.7044 43.4414 55.5656 43.6382 55.3931 43.8595C55.2188 44.0789 55.0031 44.3207 54.7444 44.5832C54.6019 44.7257 54.4406 44.8682 54.2606 45.0107C54.0806 45.1532 53.8913 45.2807 53.6906 45.3895C53.49 45.5001 53.2819 45.5901 53.0681 45.6595C52.8544 45.7289 52.6406 45.7645 52.4288 45.7645C52.1438 45.7645 51.8756 45.7139 51.6263 45.6145C51.3769 45.5132 51.1594 45.3614 50.9756 45.1532C50.79 44.947 50.6438 44.6864 50.5388 44.3751C50.4319 44.062 50.3794 43.6964 50.3794 43.2745C50.3794 43.0007 50.3925 42.7157 50.4206 42.4214C50.4469 42.127 50.4806 41.827 50.5219 41.527C50.5631 41.2251 50.6081 40.927 50.6606 40.6326C50.7131 40.3382 50.7638 40.0551 50.8144 39.7851C50.85 39.5995 50.8781 39.4364 50.9006 39.2939C50.9231 39.1514 50.9456 39.0089 50.9663 38.8664C50.9869 38.7239 51.0113 38.5701 51.0394 38.4051C51.0656 38.2401 51.0994 38.047 51.1369 37.8239C51.1556 37.7151 51.1894 37.612 51.2363 37.5145C51.2831 37.4151 51.3413 37.3289 51.4125 37.2539C51.4838 37.1789 51.5681 37.1189 51.6638 37.0739C51.7594 37.0289 51.8663 37.0064 51.9825 37.0064C52.2675 37.0064 52.4756 37.1395 52.6069 37.4057L52.5431 37.7357C52.5094 37.9214 52.4625 38.1389 52.4063 38.3864C52.35 38.6357 52.29 38.9057 52.2263 39.2001C52.1625 39.4945 52.0988 39.802 52.035 40.1226C51.9713 40.4432 51.9131 40.7714 51.8606 41.1032C51.8081 41.4351 51.7669 41.7651 51.7331 42.0932C51.6994 42.4214 51.6844 42.7382 51.6844 43.042C51.6844 43.2745 51.7013 43.4845 51.7331 43.6739C51.765 43.8632 51.8194 44.0245 51.8925 44.1576C51.9656 44.2907 52.0613 44.3939 52.1756 44.467C52.2919 44.5401 52.4306 44.5776 52.5919 44.5776C52.7531 44.5776 52.9219 44.5439 53.0963 44.4764C53.2706 44.4089 53.445 44.3207 53.6194 44.212C53.7938 44.1032 53.9663 43.9795 54.135 43.8407C54.3038 43.702 54.4594 43.5614 54.6075 43.4207C54.7538 43.2801 54.885 43.1432 55.0013 43.0101C55.1175 42.877 55.2113 42.7626 55.2844 42.6651C55.32 42.6182 55.3575 42.5695 55.3969 42.517C55.4381 42.4645 55.4831 42.4157 55.5356 42.3689C55.5881 42.322 55.6444 42.2845 55.7044 42.2526C55.7644 42.2226 55.8281 42.2057 55.8975 42.2057C55.9519 42.2057 55.9988 42.2282 56.0363 42.2732C56.0756 42.3182 56.0944 42.382 56.0944 42.4664L56.1 42.4682Z" fill="#C60500"/>
<path d="M61.8187 42.2939C61.8187 42.382 61.785 42.4964 61.7175 42.6332C61.65 42.7701 61.5581 42.922 61.44 43.0907C61.3219 43.2595 61.1831 43.4376 61.02 43.6289C60.8587 43.8201 60.6825 44.0151 60.4931 44.2157C60.2887 44.4351 60.0675 44.6526 59.8275 44.8645C59.5875 45.0764 59.3344 45.2807 59.0625 45.4776C58.7962 45.6707 58.5337 45.8207 58.275 45.9257C58.0162 46.0326 57.7706 46.0851 57.54 46.0851C57.27 46.0851 57.0356 46.0401 56.8369 45.9482C56.6381 45.8564 56.4675 45.7345 56.3269 45.577C56.1862 45.4214 56.0719 45.2414 55.9819 45.0389C55.8937 44.8364 55.8225 44.6226 55.77 44.3957C55.7175 44.1689 55.6819 43.942 55.6631 43.7095C55.6444 43.477 55.6331 43.2576 55.6331 43.0495C55.6331 42.9689 55.6387 42.847 55.65 42.6839C55.6612 42.5226 55.6781 42.3501 55.6987 42.172C55.7194 41.9939 55.7437 41.8195 55.7681 41.6507C55.7925 41.4839 55.8187 41.3507 55.8469 41.2551C55.905 41.0657 56.0381 40.8857 56.2462 40.717C56.4469 40.5557 56.67 40.4732 56.9175 40.4732C57.165 40.4732 57.2944 40.6232 57.2944 40.9251C57.2944 41.0676 57.2812 41.2195 57.2569 41.3789C57.2325 41.5382 57.2044 41.6957 57.1725 41.8514C57.1219 42.1326 57.0881 42.3876 57.0675 42.6126C57.0487 42.8376 57.0394 43.0382 57.0394 43.2126C57.0394 43.4095 57.0506 43.6007 57.0731 43.7864C57.0956 43.972 57.1294 44.137 57.1744 44.2814C57.2194 44.4257 57.2756 44.542 57.3431 44.632C57.4106 44.7201 57.4912 44.7651 57.5831 44.7651C57.6994 44.7651 57.8175 44.7539 57.9412 44.7332C58.065 44.7126 58.2131 44.6545 58.3875 44.5626C58.7194 44.3807 59.0719 44.137 59.4469 43.8276C59.5781 43.7189 59.7281 43.5914 59.895 43.4432C60.0637 43.2951 60.2306 43.1414 60.3956 42.9857C60.5606 42.8301 60.7181 42.6764 60.8644 42.5245C61.0106 42.3726 61.1269 42.2451 61.2112 42.1364C61.2225 42.1176 61.2394 42.0932 61.26 42.0632C61.2806 42.0332 61.305 42.0051 61.3331 41.9732C61.3594 41.9432 61.3894 41.917 61.4231 41.8945C61.455 41.8739 61.4869 41.8626 61.5187 41.8626C61.5806 41.8626 61.6256 41.872 61.6556 41.8889C61.6856 41.9057 61.7156 41.9601 61.7512 42.0482C61.7944 42.1439 61.815 42.2264 61.815 42.292L61.8187 42.2939ZM58.2187 37.5295C58.2187 37.657 58.2 37.777 58.1606 37.8914C58.1212 38.0057 58.0669 38.1126 57.9919 38.212C57.8456 38.4164 57.6187 38.5195 57.315 38.5195C57.2062 38.5195 57.0975 38.5101 56.985 38.4914C56.8725 38.4726 56.7731 38.4445 56.6831 38.4107C56.595 38.377 56.5219 38.332 56.4637 38.2776C56.4056 38.2232 56.3775 38.1614 56.3775 38.092C56.3775 37.972 56.4075 37.8464 56.4694 37.7132C56.5312 37.5801 56.6119 37.4564 56.7094 37.342C56.8069 37.2276 56.9156 37.1339 57.0337 37.0589C57.1519 36.9839 57.2644 36.9464 57.3731 36.9464C57.5081 36.9464 57.6281 36.9557 57.7312 36.9726C57.8344 36.9895 57.9225 37.0195 57.9956 37.0626C58.0669 37.1057 58.1212 37.1657 58.1606 37.2426C58.2 37.3195 58.2187 37.417 58.2187 37.5314V37.5295Z" fill="#C60500"/>
<path d="M71.0138 41.8607C71.0138 41.9339 71.0006 42.0145 70.9725 42.1007C70.9463 42.187 70.9125 42.2732 70.8713 42.3576C70.83 42.442 70.7869 42.5226 70.7381 42.5976C70.6894 42.6726 70.6444 42.7364 70.6013 42.7851C70.4775 42.9389 70.3406 43.1039 70.1869 43.2764C70.035 43.4507 69.8756 43.6214 69.7088 43.792C69.5419 43.9626 69.3731 44.1257 69.1988 44.2814C69.0244 44.437 68.8519 44.5739 68.6775 44.6901C68.5425 44.782 68.4113 44.8682 68.2875 44.947C68.1619 45.0257 68.0325 45.097 67.8994 45.1589C67.7663 45.2207 67.6256 45.2695 67.4775 45.3032C67.3294 45.3389 67.1663 45.3557 66.9881 45.3557C66.6994 45.3557 66.4575 45.2976 66.2681 45.1814C66.0769 45.0651 65.9213 44.9114 65.8013 44.7182C65.6813 44.5251 65.5894 44.3039 65.5256 44.0545C65.4619 43.8051 65.4131 43.5464 65.3775 43.2764C65.3269 42.9089 65.2706 42.6201 65.2088 42.4045C65.1469 42.1889 65.0719 42.0839 64.9838 42.0839C64.9069 42.0839 64.8319 42.1026 64.7588 42.1382C64.6856 42.1757 64.5938 42.2526 64.4831 42.3726C64.3725 42.4926 64.2338 42.667 64.0669 42.8957C63.8981 43.1264 63.6806 43.432 63.4106 43.8126C63.3188 43.9439 63.2044 44.0901 63.0713 44.2532C62.9381 44.4145 62.7975 44.5701 62.6513 44.7201C62.505 44.8682 62.3588 44.9995 62.2144 45.1139C62.07 45.2282 61.935 45.3051 61.8113 45.3482C61.3256 45.2395 61.0819 44.7745 61.0819 43.9532C61.0819 43.7451 61.1044 43.4376 61.1513 43.0326C61.1738 42.8507 61.2 42.6595 61.23 42.4589C61.26 42.2582 61.2956 42.0557 61.3406 41.8532C61.3856 41.6507 61.4381 41.452 61.5 41.257C61.5619 41.062 61.6331 40.882 61.7138 40.7151C61.7606 40.6232 61.8113 40.5501 61.8694 40.4957C61.9275 40.4414 61.9856 40.402 62.0456 40.3739C62.1056 40.3476 62.1675 40.3289 62.2331 40.3214C62.2988 40.3139 62.3644 40.3101 62.43 40.3101C62.4881 40.3101 62.5444 40.3251 62.5988 40.3532C62.6531 40.3814 62.7019 40.4245 62.7431 40.477C62.7844 40.5295 62.82 40.597 62.8444 40.6739C62.8688 40.7507 62.8819 40.8389 62.8819 40.9401C62.8819 41.0282 62.8744 41.1145 62.8594 41.1951C62.8444 41.2757 62.8219 41.3601 62.7956 41.4464C62.7694 41.5326 62.7413 41.6245 62.7113 41.722C62.6813 41.8195 62.6531 41.9282 62.6213 42.052C62.6025 42.1326 62.5744 42.2376 62.5369 42.3651C62.4994 42.4926 62.4638 42.6239 62.4263 42.7626C62.3888 42.8995 62.355 43.0345 62.325 43.1657C62.295 43.297 62.2744 43.4076 62.2669 43.4957C62.3363 43.4151 62.4169 43.3139 62.5069 43.192C62.5969 43.0701 62.6925 42.9389 62.7938 42.7982C62.895 42.6576 62.9963 42.5132 63.1013 42.367C63.2063 42.2207 63.3094 42.082 63.4144 41.9507C63.5494 41.7801 63.6825 41.6207 63.8138 41.4707C63.945 41.3207 64.0838 41.1895 64.2281 41.0807C64.3725 40.9701 64.53 40.8839 64.7006 40.8201C64.8713 40.7564 65.0606 40.7245 65.2744 40.7245C65.5256 40.7245 65.73 40.7751 65.8875 40.8782C66.045 40.9795 66.1725 41.122 66.2663 41.3039C66.36 41.4857 66.4313 41.6995 66.4781 41.9489C66.525 42.1982 66.5606 42.4682 66.5888 42.7626C66.6038 42.9126 66.6244 43.0682 66.6488 43.2257C66.6731 43.3832 66.7106 43.5276 66.7613 43.657C66.8119 43.7864 66.8775 43.8932 66.9581 43.9757C67.0388 44.0582 67.14 44.0995 67.26 44.0995C67.4381 44.0995 67.6313 44.0526 67.8413 43.957C68.0513 43.8632 68.2725 43.732 68.505 43.567C68.7375 43.402 68.9738 43.2089 69.2175 42.9876C69.4613 42.7682 69.7031 42.532 69.9469 42.2807C70.0238 42.2001 70.0988 42.1195 70.17 42.0407C70.2413 41.962 70.3106 41.8907 70.3763 41.827C70.4419 41.7632 70.5056 41.7126 70.5675 41.6732C70.6294 41.6339 70.6913 41.6151 70.7531 41.6151C70.7756 41.6151 70.8038 41.6189 70.8338 41.6245C70.8638 41.6301 70.8938 41.6414 70.92 41.6601C70.9463 41.677 70.9688 41.7014 70.9875 41.7332C71.0044 41.7651 71.0138 41.8064 71.0138 41.8607Z" fill="#C60500"/>
<path d="M74.3887 41.5889C74.3569 41.8439 74.3344 42.127 74.3156 42.4364C74.2969 42.7457 74.2744 43.0889 74.2425 43.4639C74.2312 43.6026 74.2162 43.7639 74.1994 43.9476C74.1825 44.1314 74.1619 44.3189 74.1412 44.5101C74.1206 44.7014 74.0981 44.8889 74.0756 45.0726C74.0531 45.2564 74.0287 45.4195 74.0062 45.562C73.9725 45.7851 73.9275 46.0232 73.8731 46.2707C73.8187 46.5201 73.7494 46.7676 73.6612 47.0114C73.575 47.257 73.47 47.4895 73.3481 47.7126C73.2262 47.9357 73.08 48.1307 72.9075 48.3032C72.735 48.4757 72.5362 48.6107 72.3075 48.712C72.0787 48.8132 71.82 48.862 71.5256 48.862C71.3437 48.862 71.16 48.8414 70.9762 48.7982C70.7906 48.7551 70.6087 48.697 70.4325 48.6239C70.2544 48.5507 70.0856 48.4645 69.9225 48.367C69.7612 48.2695 69.6112 48.1626 69.4762 48.052C69.1444 47.7782 68.9062 47.5157 68.7637 47.2645C68.7169 47.1839 68.6812 47.1126 68.6569 47.0507C68.6325 46.9889 68.6194 46.9214 68.6194 46.8482C68.6194 46.7639 68.6456 46.6926 68.6981 46.6345C68.7506 46.5764 68.8144 46.5482 68.8912 46.5482C68.9269 46.5482 68.97 46.5632 69.0225 46.5914C69.075 46.6195 69.1256 46.6532 69.1762 46.6907C69.2269 46.7282 69.27 46.762 69.3094 46.7957C69.3487 46.8276 69.3712 46.8501 69.3787 46.8632C69.7106 47.1764 70.0575 47.407 70.4175 47.5589C70.7775 47.7089 71.145 47.7839 71.5144 47.7839C71.7375 47.7839 71.925 47.7107 72.0769 47.5664C72.2269 47.422 72.3506 47.242 72.4481 47.0245C72.5437 46.8089 72.6206 46.5726 72.6769 46.3176C72.7331 46.0626 72.7781 45.8264 72.8137 45.6051C72.8494 45.3782 72.8775 45.1232 72.9037 44.8439C72.9281 44.5645 72.9525 44.2926 72.9769 44.0301C72.7987 44.212 72.6037 44.3864 72.3919 44.557C72.18 44.7276 71.9569 44.8757 71.7262 45.0051C71.4937 45.1345 71.2575 45.2395 71.0175 45.3182C70.7756 45.397 70.5375 45.4364 70.3031 45.4364C70.1794 45.4364 70.0631 45.4101 69.9525 45.3557C69.8419 45.3014 69.7462 45.2245 69.6656 45.127C69.585 45.0276 69.5212 44.9095 69.4744 44.7707C69.4275 44.632 69.405 44.4764 69.405 44.302C69.405 44.0864 69.4444 43.852 69.5212 43.5989C69.5981 43.3457 69.6975 43.0926 69.8175 42.8376C69.9375 42.5826 70.0706 42.337 70.2169 42.0989C70.3631 41.8607 70.5056 41.6507 70.6462 41.4651C70.7869 41.2795 70.9556 41.0864 71.1581 40.8839C71.3606 40.6814 71.58 40.4957 71.8144 40.3289C72.0487 40.1601 72.2925 40.0232 72.5437 39.9145C72.795 39.8057 73.0369 39.7514 73.2731 39.7514C73.4119 39.7514 73.5525 39.7701 73.695 39.8095C73.8375 39.8489 73.9669 39.907 74.0831 39.9857C74.1994 40.0645 74.2931 40.1639 74.3662 40.2801C74.4394 40.3982 74.4769 40.5351 74.4769 40.6945C74.4769 40.7564 74.475 40.8239 74.4675 40.9007C74.4619 40.9757 74.4544 41.0545 74.445 41.1351C74.4356 41.2157 74.4262 41.2945 74.4169 41.3732C74.4075 41.4501 74.3981 41.5214 74.3906 41.587V41.5926L74.3887 41.5889ZM73.1137 42.5845C73.1325 42.4645 73.1512 42.3239 73.1681 42.1626C73.185 42.0014 73.2037 41.7951 73.2225 41.5495C73.23 41.4182 73.2394 41.3207 73.2487 41.2532C73.2581 41.1876 73.2637 41.1332 73.2637 41.092C73.2637 41.0076 73.2581 40.9457 73.2469 40.9064C73.2356 40.8595 73.2056 40.8276 73.1606 40.8107C73.1156 40.7939 73.0406 40.7826 72.9412 40.7789C72.7669 40.8951 72.5944 41.0339 72.4237 41.1951C72.2512 41.3564 72.0881 41.5326 71.9325 41.722C71.7769 41.9114 71.6287 42.1082 71.4919 42.3126C71.355 42.517 71.235 42.7157 71.13 42.9089C71.0175 43.117 70.9294 43.3232 70.8637 43.5257C70.7981 43.7282 70.7644 43.9026 70.7644 44.0489C70.7644 44.1107 70.785 44.152 70.8281 44.1726C70.8712 44.1932 70.9181 44.2045 70.9725 44.2045C71.0887 44.2045 71.2181 44.1764 71.3606 44.1182C71.5031 44.0601 71.6475 43.9907 71.7919 43.9064C71.9362 43.8239 72.075 43.7357 72.2081 43.642C72.3412 43.5482 72.4556 43.4676 72.5531 43.3982C72.5887 43.3757 72.6356 43.3345 72.6956 43.2764C72.7556 43.2182 72.8156 43.1526 72.8756 43.0776C72.9356 43.0026 72.9881 42.922 73.035 42.8339C73.0819 42.7476 73.1081 42.6632 73.1156 42.5826L73.1137 42.5845Z" fill="#C60500"/>
</svg>
