<svg width="21" height="18" viewBox="0 0 21 18" fill="none" xmlns="http://www.w3.org/2000/svg">
<path d="M0.462691 8.64472L5.29269 10.285L16.7609 3.27397C16.9274 3.17272 17.0977 3.39847 16.9544 3.53047L8.27244 11.5217L7.94994 15.9955C7.94467 16.0704 7.96231 16.1452 8.00052 16.2099C8.03872 16.2746 8.09569 16.3261 8.16386 16.3577C8.23203 16.3892 8.30819 16.3993 8.38223 16.3866C8.45628 16.3739 8.5247 16.339 8.57844 16.2865L11.2514 13.6577L16.1384 17.3567C16.6649 17.7557 17.4277 17.4745 17.5694 16.8295L20.9722 1.37947C21.1664 0.49822 20.3024 -0.24578 19.4602 0.0767195L0.43869 7.36072C-0.15831 7.58947 -0.14181 8.43922 0.462691 8.64472Z" fill="white"/>
</svg>
